<?xml version="1.0" encoding="UTF-8" standalone="no"?>
<!DOCTYPE svg PUBLIC "-//W3C//DTD SVG 1.1//EN" "http://www.w3.org/Graphics/SVG/1.1/DTD/svg11.dtd">
<svg xmlns="http://www.w3.org/2000/svg" version="1.1" viewBox="0.00 0.00 550.00 180.00">
<g stroke-width="2.00" fill="none" stroke-linecap="butt">
<path stroke="#daa0a4" vector-effect="non-scaling-stroke" d="
  M 31.73 166.01
  C 37.68 165.78 45.12 146.58 46.87 141.43
  C 52.99 123.47 58.66 107.27 62.84 87.12
  C 63.30 84.88 64.37 82.26 64.77 79.70
  Q 65.30 76.25 65.88 74.13
  C 67.14 69.56 67.19 64.99 68.19 60.54
  Q 69.12 56.37 69.01 54.50
  Q 68.30 42.58 68.47 30.66
  C 68.53 26.99 67.94 24.19 63.76 24.18
  Q 39.51 24.13 15.25 24.21
  Q 13.54 24.21 9.79 25.94
  Q 7.47 27.01 6.52 28.91
  Q 5.32 31.30 5.32 33.75
  Q 5.31 97.00 5.46 160.25
  C 5.47 164.81 14.22 166.20 17.44 166.22
  Q 24.58 166.27 31.73 166.01"
/>
<path stroke="#daa0a4" vector-effect="non-scaling-stroke" d="
  M 178.90 159.49
  Q 180.35 155.61 180.35 153.75
  Q 180.14 96.26 180.30 38.76
  C 180.31 35.67 179.59 32.77 178.92 29.82
  A 1.94 1.91 10.6 0 0 178.09 28.63
  L 172.20 24.86
  Q 171.15 24.19 169.91 24.19
  Q 150.05 24.23 130.00 24.40
  C 125.28 24.45 123.43 30.71 123.27 34.52
  C 123.02 40.39 121.03 45.53 121.98 51.51
  Q 123.64 61.92 123.21 72.46
  C 123.14 74.25 123.82 75.79 124.40 77.42
  C 125.81 81.40 124.92 85.32 125.87 89.31
  C 126.50 91.98 127.14 94.21 127.57 97.14
  C 128.02 100.24 129.08 103.26 129.49 106.24
  C 131.67 122.18 136.95 137.93 142.63 152.93
  C 144.23 157.16 147.61 165.95 152.99 166.19
  Q 156.27 166.34 166.58 166.23
  C 172.74 166.16 176.72 165.35 178.90 159.49"
/>
<path stroke="#daa0a4" vector-effect="non-scaling-stroke" d="
  M 264.74 51.53
  A 0.49 0.48 0.6 0 1 265.22 52.01
  Q 265.23 82.11 265.21 112.25
  C 265.20 115.13 262.51 121.18 268.01 121.20
  Q 272.25 121.21 276.43 121.20
  A 1.88 1.87 90.0 0 0 278.30 119.32
  Q 278.32 81.92 278.30 45.28
  C 278.30 41.16 277.21 38.44 272.50 39.29
  Q 266.91 40.30 261.51 38.79
  C 258.25 37.87 256.93 40.99 253.12 38.88
  A 1.45 1.39 54.3 0 0 252.26 38.72
  C 246.30 39.55 240.19 40.62 235.31 44.16
  Q 225.87 51.01 222.66 61.95
  Q 221.20 66.90 221.21 77.68
  Q 221.22 98.31 221.21 118.93
  Q 221.21 121.18 223.46 121.20
  L 232.74 121.25
  A 1.75 1.75 0.0 0 0 234.50 119.45
  Q 234.17 107.43 234.48 95.94
  C 234.80 83.95 252.40 85.49 260.32 85.56
  A 2.55 2.54 -88.2 0 0 262.88 83.15
  L 263.31 75.32
  A 1.91 1.90 0.7 0 0 261.35 73.32
  C 256.28 73.46 251.20 73.75 246.14 73.42
  C 241.73 73.13 239.16 74.80 236.36 77.43
  A 1.11 1.11 0.0 0 1 234.50 76.75
  C 233.63 69.26 234.09 61.41 240.06 56.05
  Q 241.31 54.92 246.21 52.60
  Q 248.46 51.53 251.03 51.51
  Q 257.95 51.44 264.74 51.53"
/>
<path stroke="#daa0a4" vector-effect="non-scaling-stroke" d="
  M 354.97 65.16
  C 353.60 58.38 354.38 51.57 354.96 44.76
  Q 355.28 41.07 352.49 39.28
  Q 352.05 39.00 351.54 39.05
  C 348.17 39.38 341.91 38.69 341.89 43.50
  Q 341.75 81.76 341.69 119.62
  A 1.59 1.58 -90.0 0 0 343.27 121.21
  L 350.73 121.21
  Q 354.98 121.21 354.99 116.96
  C 355.03 104.54 355.96 91.13 353.89 78.80
  A 2.35 2.34 82.0 0 1 355.93 76.09
  C 363.24 75.25 371.09 76.63 375.98 82.80
  A 1.53 1.52 25.5 0 1 376.32 83.76
  L 376.32 119.91
  A 1.22 1.22 0.0 0 0 377.53 121.13
  L 387.82 121.23
  A 1.89 1.88 0.3 0 0 389.73 119.35
  L 389.74 85.17
  A 5.62 5.52 34.6 0 0 389.34 83.10
  Q 388.11 80.03 387.34 76.28
  Q 386.88 74.09 385.63 72.69
  Q 382.12 68.79 377.52 66.22
  Q 375.66 65.18 373.26 65.24
  Q 364.44 65.46 355.62 65.68
  Q 355.08 65.70 354.97 65.16"
/>
<path stroke="#daa0a4" vector-effect="non-scaling-stroke" d="
  M 468.22 76.97
  L 468.22 117.35
  A 3.87 3.86 89.9 0 0 472.10 121.22
  L 479.68 121.18
  A 2.84 2.84 0.0 0 0 482.51 118.35
  L 482.51 78.55
  A 2.49 2.49 0.0 0 1 484.95 76.06
  L 493.81 75.89
  A 2.01 2.01 0.0 0 0 495.79 73.94
  L 496.02 67.32
  A 1.89 1.88 89.6 0 0 494.06 65.38
  L 484.19 65.82
  Q 483.40 65.86 483.44 65.07
  C 483.55 62.59 483.00 60.06 484.47 57.93
  C 487.83 53.06 492.51 51.83 498.23 51.78
  A 1.74 1.74 0.0 0 0 499.96 50.06
  Q 500.01 45.93 499.70 42.39
  C 499.25 37.18 488.55 40.45 485.20 42.00
  C 478.70 44.99 472.03 50.57 470.52 57.88
  C 469.18 64.38 463.75 68.27 461.99 73.99
  Q 461.80 74.60 462.24 75.07
  Q 464.09 77.05 466.87 76.03
  Q 468.22 75.54 468.22 76.97"
/>
<path stroke="#daa0a4" vector-effect="non-scaling-stroke" d="
  M 77.18 61.20
  C 76.25 64.43 74.72 67.68 74.11 70.95
  Q 73.82 72.48 73.38 73.97
  Q 70.12 84.91 67.91 96.12
  C 67.42 98.66 65.79 101.99 65.99 105.50
  Q 66.08 107.16 64.07 112.12
  Q 63.10 114.50 64.35 120.03
  Q 64.45 120.48 64.89 120.63
  C 72.73 123.34 82.65 122.63 91.62 122.14
  C 97.07 121.85 96.21 115.83 95.06 112.05
  Q 93.01 105.31 93.57 98.25
  C 93.72 96.29 91.87 92.37 91.53 89.83
  Q 90.54 82.23 88.83 74.75
  Q 86.49 64.53 84.70 57.75
  Q 84.11 55.52 82.55 53.27
  Q 82.26 52.85 81.79 53.06
  C 78.86 54.43 78.14 57.87 77.18 61.20"
/>
<path stroke="#daa0a4" vector-effect="non-scaling-stroke" d="
  M 431.44 122.48
  C 447.50 118.43 452.70 111.24 456.59 95.69
  C 457.89 90.49 455.90 88.45 454.82 84.22
  C 453.50 79.13 449.77 72.16 445.19 69.33
  C 437.63 64.64 428.61 61.39 419.72 64.30
  C 408.54 67.97 400.04 76.97 398.92 88.82
  C 398.40 94.30 398.34 100.96 401.11 105.92
  Q 408.86 119.81 424.04 122.73
  Q 427.68 123.43 431.44 122.48"
/>
<path stroke="#daa0a4" vector-effect="non-scaling-stroke" d="
  M 318.34 107.45
  C 310.69 110.08 301.05 109.06 293.01 109.10
  C 287.96 109.12 289.53 116.37 289.58 119.58
  A 1.58 1.57 90.0 0 0 291.12 121.13
  Q 301.96 121.35 312.87 121.13
  Q 319.35 121.00 322.88 119.47
  Q 328.29 117.13 332.05 112.30
  Q 332.36 111.90 332.39 111.40
  C 332.76 105.13 333.27 97.39 328.32 93.09
  Q 326.35 91.38 320.28 89.39
  Q 313.36 87.13 306.46 84.83
  C 301.68 83.24 304.02 76.56 308.50 76.25
  Q 318.49 75.55 328.37 76.10
  Q 330.36 76.22 330.28 74.22
  L 329.97 66.28
  A 0.77 0.76 -0.8 0 0 329.21 65.55
  Q 318.08 65.44 307.06 65.44
  C 303.56 65.44 295.57 66.35 293.64 69.66
  C 287.24 80.63 289.21 91.15 301.77 96.05
  Q 307.81 98.40 313.97 100.42
  C 317.12 101.46 320.58 103.19 318.98 106.86
  Q 318.79 107.30 318.34 107.45"
/>
<path stroke="#daa0a4" vector-effect="non-scaling-stroke" d="
  M 524.91 145.34
  C 527.15 145.36 529.08 145.38 531.17 144.62
  C 541.67 140.82 546.69 132.65 546.54 121.74
  Q 546.15 93.89 546.23 66.22
  A 0.52 0.52 0.0 0 0 545.71 65.70
  L 535.53 65.70
  A 0.78 0.77 0.0 0 0 534.75 66.47
  L 534.83 107.23
  Q 534.84 108.58 533.51 108.75
  C 526.46 109.66 515.87 110.45 512.87 102.04
  Q 511.97 99.52 511.97 98.75
  Q 511.96 83.02 511.95 67.58
  A 1.73 1.73 0.0 0 0 510.26 65.85
  L 499.73 65.60
  A 0.65 0.64 -6.7 0 0 499.09 66.41
  C 500.55 71.91 500.26 77.97 499.57 83.60
  C 499.31 85.77 499.80 87.91 499.39 90.28
  C 498.49 95.52 499.81 101.27 500.82 106.43
  Q 501.39 109.30 502.85 111.80
  C 506.54 118.13 508.95 118.81 515.84 120.51
  C 521.18 121.83 527.00 121.32 532.53 121.25
  A 0.94 0.92 80.7 0 1 533.43 121.91
  C 534.37 124.95 532.39 128.64 530.26 130.70
  C 526.07 134.74 516.44 135.18 511.04 134.60
  C 508.65 134.35 505.90 134.57 505.98 137.48
  Q 506.08 141.34 506.06 144.88
  A 3.08 3.07 -87.7 0 0 508.91 147.97
  C 514.14 148.38 519.30 148.96 524.04 145.61
  Q 524.44 145.34 524.91 145.34"
/>
<path stroke="#daa0a4" vector-effect="non-scaling-stroke" d="
  M 92.96 132.90
  L 65.03 132.41
  A 4.67 4.67 0.0 0 0 60.27 137.00
  L 59.92 157.09
  A 8.87 6.36 -89.0 0 0 66.13 166.07
  L 90.68 166.50
  A 8.87 6.36 -89.0 0 0 97.20 157.74
  L 97.55 137.65
  A 4.67 4.67 0.0 0 0 92.96 132.90"
/>
<path stroke="#daa0a4" vector-effect="non-scaling-stroke" d="
  M 227.83 137.98
  L 225.75 134.16
  Q 225.39 133.50 224.64 133.48
  L 221.79 133.44
  Q 221.17 133.42 221.49 133.96
  L 226.05 141.69
  Q 226.26 142.05 226.26 142.46
  L 226.27 147.51
  A 0.49 0.48 0.0 0 0 226.76 147.99
  L 229.44 148.00
  Q 229.96 148.00 229.96 147.48
  C 229.97 144.98 229.54 142.74 230.88 140.40
  Q 232.74 137.15 234.69 133.95
  A 0.35 0.35 0.0 0 0 234.38 133.42
  L 231.52 133.49
  Q 230.90 133.51 230.61 134.06
  L 228.57 137.98
  Q 228.20 138.67 227.83 137.98"
/>
<path stroke="#daa0a4" vector-effect="non-scaling-stroke" d="
  M 264.2739 139.5436
  A 6.34 6.34 0.0 0 0 257.9008 133.2369
  L 256.6608 133.2433
  A 6.34 6.34 0.0 0 0 250.3541 139.6165
  L 250.3661 141.9164
  A 6.34 6.34 0.0 0 0 256.7392 148.2231
  L 257.9792 148.2167
  A 6.34 6.34 0.0 0 0 264.2859 141.8435
  L 264.2739 139.5436"
/>
<path stroke="#daa0a4" vector-effect="non-scaling-stroke" d="
  M 364.68 138.34
  A 1.09 1.09 0.0 0 1 364.54 136.35
  C 366.68 135.22 369.05 136.21 370.91 137.40
  A 0.21 0.21 0.0 0 0 371.24 137.22
  L 371.26 134.53
  Q 371.26 134.16 370.92 134.03
  C 367.41 132.68 358.71 132.76 360.44 139.11
  C 361.16 141.74 364.37 142.17 367.26 142.92
  Q 368.55 143.25 367.80 144.83
  A 1.00 1.00 0.0 0 1 367.07 145.39
  Q 363.36 146.05 360.54 143.66
  A 0.19 0.19 0.0 0 0 360.23 143.80
  L 360.22 146.81
  Q 360.21 147.10 360.49 147.22
  C 363.97 148.76 370.21 149.16 371.62 144.66
  C 373.15 139.77 367.75 139.48 364.68 138.34"
/>
<path stroke="#daa0a4" vector-effect="non-scaling-stroke" d="
  M 456.23 137.70
  L 456.25 134.71
  Q 456.26 134.39 455.97 134.25
  C 443.50 128.15 439.63 146.85 450.28 148.21
  Q 453.03 148.56 455.61 147.32
  Q 456.25 147.02 456.25 146.31
  L 456.24 144.29
  Q 456.24 143.60 455.66 143.97
  C 444.78 150.84 445.67 129.90 455.98 137.82
  A 0.16 0.15 -70.2 0 0 456.23 137.70"
/>
<path stroke="#daa0a4" vector-effect="non-scaling-stroke" d="
  M 286.64 145.49
  A 1.87 1.87 0.0 0 1 284.85 143.64
  L 284.79 133.74
  A 0.30 0.30 0.0 0 0 284.49 133.44
  L 281.53 133.48
  Q 281.21 133.48 281.21 133.80
  C 281.13 139.29 278.94 149.52 288.52 148.17
  C 292.19 147.65 293.24 145.86 293.32 142.19
  Q 293.41 137.97 293.34 133.79
  Q 293.33 133.47 293.01 133.47
  L 290.00 133.47
  A 0.28 0.27 90.0 0 0 289.73 133.75
  L 289.71 143.20
  Q 289.70 145.62 287.29 145.51
  L 286.64 145.49"
/>
<path stroke="#daa0a4" vector-effect="non-scaling-stroke" d="
  M 314.65 143.74
  Q 314.64 140.88 316.35 143.17
  L 319.47 147.34
  Q 319.97 148.00 320.80 148.00
  L 323.68 147.99
  Q 324.47 147.99 323.98 147.37
  L 319.94 142.28
  Q 319.56 141.79 320.10 141.48
  C 322.62 140.03 323.21 136.10 320.94 134.45
  C 318.90 132.97 314.13 133.38 311.49 133.50
  Q 311.00 133.52 311.00 134.01
  L 311.00 147.50
  Q 311.00 148.01 311.50 148.00
  L 314.22 147.99
  Q 314.67 147.99 314.67 147.54
  L 314.65 143.74"
/>
<path stroke="#daa0a4" vector-effect="non-scaling-stroke" d="
  M 392.69 143.26
  Q 394.86 143.24 395.54 143.12
  C 401.12 142.10 401.42 133.56 394.74 133.51
  Q 390.64 133.48 389.06 133.44
  Q 388.50 133.43 388.50 133.99
  L 388.49 147.49
  Q 388.49 147.99 388.99 147.99
  L 391.74 148.00
  Q 392.23 148.00 392.23 147.51
  L 392.19 143.77
  Q 392.19 143.27 392.69 143.26"
/>
<path stroke="#daa0a4" vector-effect="non-scaling-stroke" d="
  M 419.35 145.30
  A 0.37 0.37 0.0 0 1 419.71 145.01
  L 423.84 145.00
  A 0.37 0.37 0.0 0 1 424.19 145.27
  L 424.87 147.74
  A 0.37 0.37 0.0 0 0 425.22 148.01
  L 428.26 147.99
  A 0.37 0.37 0.0 0 0 428.61 147.50
  L 423.94 133.72
  A 0.37 0.37 0.0 0 0 423.60 133.47
  L 420.12 133.46
  A 0.37 0.37 0.0 0 0 419.76 133.71
  L 415.09 147.51
  A 0.37 0.37 0.0 0 0 415.44 148.00
  L 418.44 148.00
  A 0.37 0.37 0.0 0 0 418.81 147.71
  L 419.35 145.30"
/>
<path stroke="#daa0a4" vector-effect="non-scaling-stroke" d="
  M 476.76 142.04
  A 0.51 0.51 0.0 0 1 477.27 141.53
  L 481.98 141.54
  A 0.51 0.51 0.0 0 0 482.49 141.05
  L 482.54 139.33
  A 0.51 0.51 0.0 0 0 482.04 138.80
  L 477.26 138.74
  A 0.51 0.51 0.0 0 1 476.76 138.23
  L 476.76 136.75
  A 0.51 0.51 0.0 0 1 477.27 136.24
  L 482.43 136.23
  A 0.51 0.51 0.0 0 0 482.94 135.73
  L 482.99 133.98
  A 0.51 0.51 0.0 0 0 482.48 133.46
  L 473.64 133.46
  A 0.51 0.51 0.0 0 0 473.13 133.97
  L 473.13 147.50
  A 0.51 0.51 0.0 0 0 473.64 148.01
  L 482.49 147.98
  A 0.51 0.51 0.0 0 0 483.00 147.47
  L 482.99 145.75
  A 0.51 0.51 0.0 0 0 482.48 145.24
  L 477.25 145.23
  A 0.51 0.51 0.0 0 1 476.74 144.72
  L 476.76 142.04"
/>
<path stroke="#daa0a4" vector-effect="non-scaling-stroke" d="
  M 425.70 110.28
  C 437.95 111.66 447.03 99.71 443.50 87.99
  C 441.85 82.48 437.60 76.98 432.00 76.46
  C 428.13 76.10 423.02 76.04 419.53 77.79
  C 411.51 81.81 411.38 89.47 411.96 98.38
  Q 412.11 100.71 413.36 102.34
  C 416.35 106.28 420.61 109.71 425.70 110.28"
/>
<path stroke="#daa0a4" vector-effect="non-scaling-stroke" d="
  M 257.3300 145.6300
  A 4.90 3.34 90.0 0 0 260.6700 140.7300
  A 4.90 3.34 90.0 0 0 257.3300 135.8300
  A 4.90 3.34 90.0 0 0 253.9900 140.7300
  A 4.90 3.34 90.0 0 0 257.3300 145.6300"
/>
<path stroke="#daa0a4" vector-effect="non-scaling-stroke" d="
  M 314.68 136.41
  L 314.64 139.69
  A 0.30 0.30 0.0 0 0 314.94 139.99
  L 316.44 140.01
  A 2.10 1.74 0.6 0 0 318.56 138.29
  L 318.56 137.89
  A 2.10 1.74 0.6 0 0 316.48 136.13
  L 314.98 136.11
  A 0.30 0.30 0.0 0 0 314.68 136.41"
/>
<path stroke="#daa0a4" vector-effect="non-scaling-stroke" d="
  M 392.22 136.49
  L 392.18 140.15
  A 0.36 0.36 0.0 0 0 392.54 140.52
  L 393.46 140.52
  A 2.48 2.01 0.5 0 0 395.96 138.54
  L 395.96 138.18
  A 2.48 2.01 0.5 0 0 393.50 136.14
  L 392.58 136.14
  A 0.36 0.36 0.0 0 0 392.22 136.49"
/>
<path stroke="#daa0a4" vector-effect="non-scaling-stroke" d="
  M 421.62 138.11
  L 420.51 141.80
  Q 420.34 142.36 420.93 142.36
  L 422.75 142.39
  Q 423.29 142.39 423.12 141.88
  L 421.92 138.11
  A 0.16 0.16 0.0 0 0 421.62 138.11"
/>
</g>
<path fill="#ffffff" d="
  M 0.00 0.00
  L 550.00 0.00
  L 550.00 180.00
  L 0.00 180.00
  L 0.00 0.00
  Z
  M 31.73 166.01
  C 37.68 165.78 45.12 146.58 46.87 141.43
  C 52.99 123.47 58.66 107.27 62.84 87.12
  C 63.30 84.88 64.37 82.26 64.77 79.70
  Q 65.30 76.25 65.88 74.13
  C 67.14 69.56 67.19 64.99 68.19 60.54
  Q 69.12 56.37 69.01 54.50
  Q 68.30 42.58 68.47 30.66
  C 68.53 26.99 67.94 24.19 63.76 24.18
  Q 39.51 24.13 15.25 24.21
  Q 13.54 24.21 9.79 25.94
  Q 7.47 27.01 6.52 28.91
  Q 5.32 31.30 5.32 33.75
  Q 5.31 97.00 5.46 160.25
  C 5.47 164.81 14.22 166.20 17.44 166.22
  Q 24.58 166.27 31.73 166.01
  Z
  M 178.90 159.49
  Q 180.35 155.61 180.35 153.75
  Q 180.14 96.26 180.30 38.76
  C 180.31 35.67 179.59 32.77 178.92 29.82
  A 1.94 1.91 10.6 0 0 178.09 28.63
  L 172.20 24.86
  Q 171.15 24.19 169.91 24.19
  Q 150.05 24.23 130.00 24.40
  C 125.28 24.45 123.43 30.71 123.27 34.52
  C 123.02 40.39 121.03 45.53 121.98 51.51
  Q 123.64 61.92 123.21 72.46
  C 123.14 74.25 123.82 75.79 124.40 77.42
  C 125.81 81.40 124.92 85.32 125.87 89.31
  C 126.50 91.98 127.14 94.21 127.57 97.14
  C 128.02 100.24 129.08 103.26 129.49 106.24
  C 131.67 122.18 136.95 137.93 142.63 152.93
  C 144.23 157.16 147.61 165.95 152.99 166.19
  Q 156.27 166.34 166.58 166.23
  C 172.74 166.16 176.72 165.35 178.90 159.49
  Z
  M 264.74 51.53
  A 0.49 0.48 0.6 0 1 265.22 52.01
  Q 265.23 82.11 265.21 112.25
  C 265.20 115.13 262.51 121.18 268.01 121.20
  Q 272.25 121.21 276.43 121.20
  A 1.88 1.87 90.0 0 0 278.30 119.32
  Q 278.32 81.92 278.30 45.28
  C 278.30 41.16 277.21 38.44 272.50 39.29
  Q 266.91 40.30 261.51 38.79
  C 258.25 37.87 256.93 40.99 253.12 38.88
  A 1.45 1.39 54.3 0 0 252.26 38.72
  C 246.30 39.55 240.19 40.62 235.31 44.16
  Q 225.87 51.01 222.66 61.95
  Q 221.20 66.90 221.21 77.68
  Q 221.22 98.31 221.21 118.93
  Q 221.21 121.18 223.46 121.20
  L 232.74 121.25
  A 1.75 1.75 0.0 0 0 234.50 119.45
  Q 234.17 107.43 234.48 95.94
  C 234.80 83.95 252.40 85.49 260.32 85.56
  A 2.55 2.54 -88.2 0 0 262.88 83.15
  L 263.31 75.32
  A 1.91 1.90 0.7 0 0 261.35 73.32
  C 256.28 73.46 251.20 73.75 246.14 73.42
  C 241.73 73.13 239.16 74.80 236.36 77.43
  A 1.11 1.11 0.0 0 1 234.50 76.75
  C 233.63 69.26 234.09 61.41 240.06 56.05
  Q 241.31 54.92 246.21 52.60
  Q 248.46 51.53 251.03 51.51
  Q 257.95 51.44 264.74 51.53
  Z
  M 354.97 65.16
  C 353.60 58.38 354.38 51.57 354.96 44.76
  Q 355.28 41.07 352.49 39.28
  Q 352.05 39.00 351.54 39.05
  C 348.17 39.38 341.91 38.69 341.89 43.50
  Q 341.75 81.76 341.69 119.62
  A 1.59 1.58 -90.0 0 0 343.27 121.21
  L 350.73 121.21
  Q 354.98 121.21 354.99 116.96
  C 355.03 104.54 355.96 91.13 353.89 78.80
  A 2.35 2.34 82.0 0 1 355.93 76.09
  C 363.24 75.25 371.09 76.63 375.98 82.80
  A 1.53 1.52 25.5 0 1 376.32 83.76
  L 376.32 119.91
  A 1.22 1.22 0.0 0 0 377.53 121.13
  L 387.82 121.23
  A 1.89 1.88 0.3 0 0 389.73 119.35
  L 389.74 85.17
  A 5.62 5.52 34.6 0 0 389.34 83.10
  Q 388.11 80.03 387.34 76.28
  Q 386.88 74.09 385.63 72.69
  Q 382.12 68.79 377.52 66.22
  Q 375.66 65.18 373.26 65.24
  Q 364.44 65.46 355.62 65.68
  Q 355.08 65.70 354.97 65.16
  Z
  M 468.22 76.97
  L 468.22 117.35
  A 3.87 3.86 89.9 0 0 472.10 121.22
  L 479.68 121.18
  A 2.84 2.84 0.0 0 0 482.51 118.35
  L 482.51 78.55
  A 2.49 2.49 0.0 0 1 484.95 76.06
  L 493.81 75.89
  A 2.01 2.01 0.0 0 0 495.79 73.94
  L 496.02 67.32
  A 1.89 1.88 89.6 0 0 494.06 65.38
  L 484.19 65.82
  Q 483.40 65.86 483.44 65.07
  C 483.55 62.59 483.00 60.06 484.47 57.93
  C 487.83 53.06 492.51 51.83 498.23 51.78
  A 1.74 1.74 0.0 0 0 499.96 50.06
  Q 500.01 45.93 499.70 42.39
  C 499.25 37.18 488.55 40.45 485.20 42.00
  C 478.70 44.99 472.03 50.57 470.52 57.88
  C 469.18 64.38 463.75 68.27 461.99 73.99
  Q 461.80 74.60 462.24 75.07
  Q 464.09 77.05 466.87 76.03
  Q 468.22 75.54 468.22 76.97
  Z
  M 77.18 61.20
  C 76.25 64.43 74.72 67.68 74.11 70.95
  Q 73.82 72.48 73.38 73.97
  Q 70.12 84.91 67.91 96.12
  C 67.42 98.66 65.79 101.99 65.99 105.50
  Q 66.08 107.16 64.07 112.12
  Q 63.10 114.50 64.35 120.03
  Q 64.45 120.48 64.89 120.63
  C 72.73 123.34 82.65 122.63 91.62 122.14
  C 97.07 121.85 96.21 115.83 95.06 112.05
  Q 93.01 105.31 93.57 98.25
  C 93.72 96.29 91.87 92.37 91.53 89.83
  Q 90.54 82.23 88.83 74.75
  Q 86.49 64.53 84.70 57.75
  Q 84.11 55.52 82.55 53.27
  Q 82.26 52.85 81.79 53.06
  C 78.86 54.43 78.14 57.87 77.18 61.20
  Z
  M 431.44 122.48
  C 447.50 118.43 452.70 111.24 456.59 95.69
  C 457.89 90.49 455.90 88.45 454.82 84.22
  C 453.50 79.13 449.77 72.16 445.19 69.33
  C 437.63 64.64 428.61 61.39 419.72 64.30
  C 408.54 67.97 400.04 76.97 398.92 88.82
  C 398.40 94.30 398.34 100.96 401.11 105.92
  Q 408.86 119.81 424.04 122.73
  Q 427.68 123.43 431.44 122.48
  Z
  M 318.34 107.45
  C 310.69 110.08 301.05 109.06 293.01 109.10
  C 287.96 109.12 289.53 116.37 289.58 119.58
  A 1.58 1.57 90.0 0 0 291.12 121.13
  Q 301.96 121.35 312.87 121.13
  Q 319.35 121.00 322.88 119.47
  Q 328.29 117.13 332.05 112.30
  Q 332.36 111.90 332.39 111.40
  C 332.76 105.13 333.27 97.39 328.32 93.09
  Q 326.35 91.38 320.28 89.39
  Q 313.36 87.13 306.46 84.83
  C 301.68 83.24 304.02 76.56 308.50 76.25
  Q 318.49 75.55 328.37 76.10
  Q 330.36 76.22 330.28 74.22
  L 329.97 66.28
  A 0.77 0.76 -0.8 0 0 329.21 65.55
  Q 318.08 65.44 307.06 65.44
  C 303.56 65.44 295.57 66.35 293.64 69.66
  C 287.24 80.63 289.21 91.15 301.77 96.05
  Q 307.81 98.40 313.97 100.42
  C 317.12 101.46 320.58 103.19 318.98 106.86
  Q 318.79 107.30 318.34 107.45
  Z
  M 524.91 145.34
  C 527.15 145.36 529.08 145.38 531.17 144.62
  C 541.67 140.82 546.69 132.65 546.54 121.74
  Q 546.15 93.89 546.23 66.22
  A 0.52 0.52 0.0 0 0 545.71 65.70
  L 535.53 65.70
  A 0.78 0.77 0.0 0 0 534.75 66.47
  L 534.83 107.23
  Q 534.84 108.58 533.51 108.75
  C 526.46 109.66 515.87 110.45 512.87 102.04
  Q 511.97 99.52 511.97 98.75
  Q 511.96 83.02 511.95 67.58
  A 1.73 1.73 0.0 0 0 510.26 65.85
  L 499.73 65.60
  A 0.65 0.64 -6.7 0 0 499.09 66.41
  C 500.55 71.91 500.26 77.97 499.57 83.60
  C 499.31 85.77 499.80 87.91 499.39 90.28
  C 498.49 95.52 499.81 101.27 500.82 106.43
  Q 501.39 109.30 502.85 111.80
  C 506.54 118.13 508.95 118.81 515.84 120.51
  C 521.18 121.83 527.00 121.32 532.53 121.25
  A 0.94 0.92 80.7 0 1 533.43 121.91
  C 534.37 124.95 532.39 128.64 530.26 130.70
  C 526.07 134.74 516.44 135.18 511.04 134.60
  C 508.65 134.35 505.90 134.57 505.98 137.48
  Q 506.08 141.34 506.06 144.88
  A 3.08 3.07 -87.7 0 0 508.91 147.97
  C 514.14 148.38 519.30 148.96 524.04 145.61
  Q 524.44 145.34 524.91 145.34
  Z
  M 92.96 132.90
  L 65.03 132.41
  A 4.67 4.67 0.0 0 0 60.27 137.00
  L 59.92 157.09
  A 8.87 6.36 -89.0 0 0 66.13 166.07
  L 90.68 166.50
  A 8.87 6.36 -89.0 0 0 97.20 157.74
  L 97.55 137.65
  A 4.67 4.67 0.0 0 0 92.96 132.90
  Z
  M 227.83 137.98
  L 225.75 134.16
  Q 225.39 133.50 224.64 133.48
  L 221.79 133.44
  Q 221.17 133.42 221.49 133.96
  L 226.05 141.69
  Q 226.26 142.05 226.26 142.46
  L 226.27 147.51
  A 0.49 0.48 0.0 0 0 226.76 147.99
  L 229.44 148.00
  Q 229.96 148.00 229.96 147.48
  C 229.97 144.98 229.54 142.74 230.88 140.40
  Q 232.74 137.15 234.69 133.95
  A 0.35 0.35 0.0 0 0 234.38 133.42
  L 231.52 133.49
  Q 230.90 133.51 230.61 134.06
  L 228.57 137.98
  Q 228.20 138.67 227.83 137.98
  Z
  M 264.2739 139.5436
  A 6.34 6.34 0.0 0 0 257.9008 133.2369
  L 256.6608 133.2433
  A 6.34 6.34 0.0 0 0 250.3541 139.6165
  L 250.3661 141.9164
  A 6.34 6.34 0.0 0 0 256.7392 148.2231
  L 257.9792 148.2167
  A 6.34 6.34 0.0 0 0 264.2859 141.8435
  L 264.2739 139.5436
  Z
  M 364.68 138.34
  A 1.09 1.09 0.0 0 1 364.54 136.35
  C 366.68 135.22 369.05 136.21 370.91 137.40
  A 0.21 0.21 0.0 0 0 371.24 137.22
  L 371.26 134.53
  Q 371.26 134.16 370.92 134.03
  C 367.41 132.68 358.71 132.76 360.44 139.11
  C 361.16 141.74 364.37 142.17 367.26 142.92
  Q 368.55 143.25 367.80 144.83
  A 1.00 1.00 0.0 0 1 367.07 145.39
  Q 363.36 146.05 360.54 143.66
  A 0.19 0.19 0.0 0 0 360.23 143.80
  L 360.22 146.81
  Q 360.21 147.10 360.49 147.22
  C 363.97 148.76 370.21 149.16 371.62 144.66
  C 373.15 139.77 367.75 139.48 364.68 138.34
  Z
  M 456.23 137.70
  L 456.25 134.71
  Q 456.26 134.39 455.97 134.25
  C 443.50 128.15 439.63 146.85 450.28 148.21
  Q 453.03 148.56 455.61 147.32
  Q 456.25 147.02 456.25 146.31
  L 456.24 144.29
  Q 456.24 143.60 455.66 143.97
  C 444.78 150.84 445.67 129.90 455.98 137.82
  A 0.16 0.15 -70.2 0 0 456.23 137.70
  Z
  M 286.64 145.49
  A 1.87 1.87 0.0 0 1 284.85 143.64
  L 284.79 133.74
  A 0.30 0.30 0.0 0 0 284.49 133.44
  L 281.53 133.48
  Q 281.21 133.48 281.21 133.80
  C 281.13 139.29 278.94 149.52 288.52 148.17
  C 292.19 147.65 293.24 145.86 293.32 142.19
  Q 293.41 137.97 293.34 133.79
  Q 293.33 133.47 293.01 133.47
  L 290.00 133.47
  A 0.28 0.27 90.0 0 0 289.73 133.75
  L 289.71 143.20
  Q 289.70 145.62 287.29 145.51
  L 286.64 145.49
  Z
  M 314.65 143.74
  Q 314.64 140.88 316.35 143.17
  L 319.47 147.34
  Q 319.97 148.00 320.80 148.00
  L 323.68 147.99
  Q 324.47 147.99 323.98 147.37
  L 319.94 142.28
  Q 319.56 141.79 320.10 141.48
  C 322.62 140.03 323.21 136.10 320.94 134.45
  C 318.90 132.97 314.13 133.38 311.49 133.50
  Q 311.00 133.52 311.00 134.01
  L 311.00 147.50
  Q 311.00 148.01 311.50 148.00
  L 314.22 147.99
  Q 314.67 147.99 314.67 147.54
  L 314.65 143.74
  Z
  M 392.69 143.26
  Q 394.86 143.24 395.54 143.12
  C 401.12 142.10 401.42 133.56 394.74 133.51
  Q 390.64 133.48 389.06 133.44
  Q 388.50 133.43 388.50 133.99
  L 388.49 147.49
  Q 388.49 147.99 388.99 147.99
  L 391.74 148.00
  Q 392.23 148.00 392.23 147.51
  L 392.19 143.77
  Q 392.19 143.27 392.69 143.26
  Z
  M 419.35 145.30
  A 0.37 0.37 0.0 0 1 419.71 145.01
  L 423.84 145.00
  A 0.37 0.37 0.0 0 1 424.19 145.27
  L 424.87 147.74
  A 0.37 0.37 0.0 0 0 425.22 148.01
  L 428.26 147.99
  A 0.37 0.37 0.0 0 0 428.61 147.50
  L 423.94 133.72
  A 0.37 0.37 0.0 0 0 423.60 133.47
  L 420.12 133.46
  A 0.37 0.37 0.0 0 0 419.76 133.71
  L 415.09 147.51
  A 0.37 0.37 0.0 0 0 415.44 148.00
  L 418.44 148.00
  A 0.37 0.37 0.0 0 0 418.81 147.71
  L 419.35 145.30
  Z
  M 476.76 142.04
  A 0.51 0.51 0.0 0 1 477.27 141.53
  L 481.98 141.54
  A 0.51 0.51 0.0 0 0 482.49 141.05
  L 482.54 139.33
  A 0.51 0.51 0.0 0 0 482.04 138.80
  L 477.26 138.74
  A 0.51 0.51 0.0 0 1 476.76 138.23
  L 476.76 136.75
  A 0.51 0.51 0.0 0 1 477.27 136.24
  L 482.43 136.23
  A 0.51 0.51 0.0 0 0 482.94 135.73
  L 482.99 133.98
  A 0.51 0.51 0.0 0 0 482.48 133.46
  L 473.64 133.46
  A 0.51 0.51 0.0 0 0 473.13 133.97
  L 473.13 147.50
  A 0.51 0.51 0.0 0 0 473.64 148.01
  L 482.49 147.98
  A 0.51 0.51 0.0 0 0 483.00 147.47
  L 482.99 145.75
  A 0.51 0.51 0.0 0 0 482.48 145.24
  L 477.25 145.23
  A 0.51 0.51 0.0 0 1 476.74 144.72
  L 476.76 142.04
  Z"
/>
<path fill="#b54048" d="
  M 46.87 141.43
  C 45.12 146.58 37.68 165.78 31.73 166.01
  Q 24.58 166.27 17.44 166.22
  C 14.22 166.20 5.47 164.81 5.46 160.25
  Q 5.31 97.00 5.32 33.75
  Q 5.32 31.30 6.52 28.91
  Q 7.47 27.01 9.79 25.94
  Q 13.54 24.21 15.25 24.21
  Q 39.51 24.13 63.76 24.18
  C 67.94 24.19 68.53 26.99 68.47 30.66
  Q 68.30 42.58 69.01 54.50
  Q 69.12 56.37 68.19 60.54
  C 67.19 64.99 67.14 69.56 65.88 74.13
  Q 65.30 76.25 64.77 79.70
  C 64.37 82.26 63.30 84.88 62.84 87.12
  C 58.66 107.27 52.99 123.47 46.87 141.43
  Z"
/>
<path fill="#b54048" d="
  M 178.90 159.49
  C 176.72 165.35 172.74 166.16 166.58 166.23
  Q 156.27 166.34 152.99 166.19
  C 147.61 165.95 144.23 157.16 142.63 152.93
  C 136.95 137.93 131.67 122.18 129.49 106.24
  C 129.08 103.26 128.02 100.24 127.57 97.14
  C 127.14 94.21 126.50 91.98 125.87 89.31
  C 124.92 85.32 125.81 81.40 124.40 77.42
  C 123.82 75.79 123.14 74.25 123.21 72.46
  Q 123.64 61.92 121.98 51.51
  C 121.03 45.53 123.02 40.39 123.27 34.52
  C 123.43 30.71 125.28 24.45 130.00 24.40
  Q 150.05 24.23 169.91 24.19
  Q 171.15 24.19 172.20 24.86
  L 178.09 28.63
  A 1.94 1.91 10.6 0 1 178.92 29.82
  C 179.59 32.77 180.31 35.67 180.30 38.76
  Q 180.14 96.26 180.35 153.75
  Q 180.35 155.61 178.90 159.49
  Z"
/>
<path fill="#b54048" d="
  M 264.74 51.53
  Q 257.95 51.44 251.03 51.51
  Q 248.46 51.53 246.21 52.60
  Q 241.31 54.92 240.06 56.05
  C 234.09 61.41 233.63 69.26 234.50 76.75
  A 1.11 1.11 0.0 0 0 236.36 77.43
  C 239.16 74.80 241.73 73.13 246.14 73.42
  C 251.20 73.75 256.28 73.46 261.35 73.32
  A 1.91 1.90 0.7 0 1 263.31 75.32
  L 262.88 83.15
  A 2.55 2.54 -88.2 0 1 260.32 85.56
  C 252.40 85.49 234.80 83.95 234.48 95.94
  Q 234.17 107.43 234.50 119.45
  A 1.75 1.75 0.0 0 1 232.74 121.25
  L 223.46 121.20
  Q 221.21 121.18 221.21 118.93
  Q 221.22 98.31 221.21 77.68
  Q 221.20 66.90 222.66 61.95
  Q 225.87 51.01 235.31 44.16
  C 240.19 40.62 246.30 39.55 252.26 38.72
  A 1.45 1.39 54.3 0 1 253.12 38.88
  C 256.93 40.99 258.25 37.87 261.51 38.79
  Q 266.91 40.30 272.50 39.29
  C 277.21 38.44 278.30 41.16 278.30 45.28
  Q 278.32 81.92 278.30 119.32
  A 1.88 1.87 -90.0 0 1 276.43 121.20
  Q 272.25 121.21 268.01 121.20
  C 262.51 121.18 265.20 115.13 265.21 112.25
  Q 265.23 82.11 265.22 52.01
  A 0.49 0.48 0.6 0 0 264.74 51.53
  Z"
/>
<path fill="#b54048" d="
  M 355.62 65.68
  Q 364.44 65.46 373.26 65.24
  Q 375.66 65.18 377.52 66.22
  Q 382.12 68.79 385.63 72.69
  Q 386.88 74.09 387.34 76.28
  Q 388.11 80.03 389.34 83.10
  A 5.62 5.52 34.6 0 1 389.74 85.17
  L 389.73 119.35
  A 1.89 1.88 0.3 0 1 387.82 121.23
  L 377.53 121.13
  A 1.22 1.22 0.0 0 1 376.32 119.91
  L 376.32 83.76
  A 1.53 1.52 25.5 0 0 375.98 82.80
  C 371.09 76.63 363.24 75.25 355.93 76.09
  A 2.35 2.34 82.0 0 0 353.89 78.80
  C 355.96 91.13 355.03 104.54 354.99 116.96
  Q 354.98 121.21 350.73 121.21
  L 343.27 121.21
  A 1.59 1.58 90.0 0 1 341.69 119.62
  Q 341.75 81.76 341.89 43.50
  C 341.91 38.69 348.17 39.38 351.54 39.05
  Q 352.05 39.00 352.49 39.28
  Q 355.28 41.07 354.96 44.76
  C 354.38 51.57 353.60 58.38 354.97 65.16
  Q 355.08 65.70 355.62 65.68
  Z"
/>
<path fill="#b54048" d="
  M 468.22 76.97
  Q 468.22 75.54 466.87 76.03
  Q 464.09 77.05 462.24 75.07
  Q 461.80 74.60 461.99 73.99
  C 463.75 68.27 469.18 64.38 470.52 57.88
  C 472.03 50.57 478.70 44.99 485.20 42.00
  C 488.55 40.45 499.25 37.18 499.70 42.39
  Q 500.01 45.93 499.96 50.06
  A 1.74 1.74 0.0 0 1 498.23 51.78
  C 492.51 51.83 487.83 53.06 484.47 57.93
  C 483.00 60.06 483.55 62.59 483.44 65.07
  Q 483.40 65.86 484.19 65.82
  L 494.06 65.38
  A 1.89 1.88 89.6 0 1 496.02 67.32
  L 495.79 73.94
  A 2.01 2.01 0.0 0 1 493.81 75.89
  L 484.95 76.06
  A 2.49 2.49 0.0 0 0 482.51 78.55
  L 482.51 118.35
  A 2.84 2.84 0.0 0 1 479.68 121.18
  L 472.10 121.22
  A 3.87 3.86 89.9 0 1 468.22 117.35
  L 468.22 76.97
  Z"
/>
<path fill="#b54048" d="
  M 77.18 61.20
  C 78.14 57.87 78.86 54.43 81.79 53.06
  Q 82.26 52.85 82.55 53.27
  Q 84.11 55.52 84.70 57.75
  Q 86.49 64.53 88.83 74.75
  Q 90.54 82.23 91.53 89.83
  C 91.87 92.37 93.72 96.29 93.57 98.25
  Q 93.01 105.31 95.06 112.05
  C 96.21 115.83 97.07 121.85 91.62 122.14
  C 82.65 122.63 72.73 123.34 64.89 120.63
  Q 64.45 120.48 64.35 120.03
  Q 63.10 114.50 64.07 112.12
  Q 66.08 107.16 65.99 105.50
  C 65.79 101.99 67.42 98.66 67.91 96.12
  Q 70.12 84.91 73.38 73.97
  Q 73.82 72.48 74.11 70.95
  C 74.72 67.68 76.25 64.43 77.18 61.20
  Z"
/>
<path fill="#b54048" d="
  M 456.59 95.69
  C 452.70 111.24 447.50 118.43 431.44 122.48
  Q 427.68 123.43 424.04 122.73
  Q 408.86 119.81 401.11 105.92
  C 398.34 100.96 398.40 94.30 398.92 88.82
  C 400.04 76.97 408.54 67.97 419.72 64.30
  C 428.61 61.39 437.63 64.64 445.19 69.33
  C 449.77 72.16 453.50 79.13 454.82 84.22
  C 455.90 88.45 457.89 90.49 456.59 95.69
  Z
  M 425.70 110.28
  C 437.95 111.66 447.03 99.71 443.50 87.99
  C 441.85 82.48 437.60 76.98 432.00 76.46
  C 428.13 76.10 423.02 76.04 419.53 77.79
  C 411.51 81.81 411.38 89.47 411.96 98.38
  Q 412.11 100.71 413.36 102.34
  C 416.35 106.28 420.61 109.71 425.70 110.28
  Z"
/>
<path fill="#b54048" d="
  M 318.98 106.86
  C 320.58 103.19 317.12 101.46 313.97 100.42
  Q 307.81 98.40 301.77 96.05
  C 289.21 91.15 287.24 80.63 293.64 69.66
  C 295.57 66.35 303.56 65.44 307.06 65.44
  Q 318.08 65.44 329.21 65.55
  A 0.77 0.76 -0.8 0 1 329.97 66.28
  L 330.28 74.22
  Q 330.36 76.22 328.37 76.10
  Q 318.49 75.55 308.50 76.25
  C 304.02 76.56 301.68 83.24 306.46 84.83
  Q 313.36 87.13 320.28 89.39
  Q 326.35 91.38 328.32 93.09
  C 333.27 97.39 332.76 105.13 332.39 111.40
  Q 332.36 111.90 332.05 112.30
  Q 328.29 117.13 322.88 119.47
  Q 319.35 121.00 312.87 121.13
  Q 301.96 121.35 291.12 121.13
  A 1.58 1.57 90.0 0 1 289.58 119.58
  C 289.53 116.37 287.96 109.12 293.01 109.10
  C 301.05 109.06 310.69 110.08 318.34 107.45
  Q 318.79 107.30 318.98 106.86
  Z"
/>
<path fill="#b54048" d="
  M 524.04 145.61
  C 519.30 148.96 514.14 148.38 508.91 147.97
  A 3.08 3.07 -87.7 0 1 506.06 144.88
  Q 506.08 141.34 505.98 137.48
  C 505.90 134.57 508.65 134.35 511.04 134.60
  C 516.44 135.18 526.07 134.74 530.26 130.70
  C 532.39 128.64 534.37 124.95 533.43 121.91
  A 0.94 0.92 80.7 0 0 532.53 121.25
  C 527.00 121.32 521.18 121.83 515.84 120.51
  C 508.95 118.81 506.54 118.13 502.85 111.80
  Q 501.39 109.30 500.82 106.43
  C 499.81 101.27 498.49 95.52 499.39 90.28
  C 499.80 87.91 499.31 85.77 499.57 83.60
  C 500.26 77.97 500.55 71.91 499.09 66.41
  A 0.65 0.64 -6.7 0 1 499.73 65.60
  L 510.26 65.85
  A 1.73 1.73 0.0 0 1 511.95 67.58
  Q 511.96 83.02 511.97 98.75
  Q 511.97 99.52 512.87 102.04
  C 515.87 110.45 526.46 109.66 533.51 108.75
  Q 534.84 108.58 534.83 107.23
  L 534.75 66.47
  A 0.78 0.77 -0.0 0 1 535.53 65.70
  L 545.71 65.70
  A 0.52 0.52 0.0 0 1 546.23 66.22
  Q 546.15 93.89 546.54 121.74
  C 546.69 132.65 541.67 140.82 531.17 144.62
  C 529.08 145.38 527.15 145.36 524.91 145.34
  Q 524.44 145.34 524.04 145.61
  Z"
/>
<path fill="#ffffff" d="
  M 443.50 87.99
  C 447.03 99.71 437.95 111.66 425.70 110.28
  C 420.61 109.71 416.35 106.28 413.36 102.34
  Q 412.11 100.71 411.96 98.38
  C 411.38 89.47 411.51 81.81 419.53 77.79
  C 423.02 76.04 428.13 76.10 432.00 76.46
  C 437.60 76.98 441.85 82.48 443.50 87.99
  Z"
/>
<path fill="#b54048" d="
  M 92.96 132.90
  A 4.67 4.67 0.0 0 1 97.55 137.65
  L 97.20 157.74
  A 8.87 6.36 -89.0 0 1 90.68 166.50
  L 66.13 166.07
  A 8.87 6.36 -89.0 0 1 59.92 157.09
  L 60.27 137.00
  A 4.67 4.67 0.0 0 1 65.03 132.41
  L 92.96 132.90
  Z"
/>
<path fill="#b54048" d="
  M 228.57 137.98
  L 230.61 134.06
  Q 230.90 133.51 231.52 133.49
  L 234.38 133.42
  A 0.35 0.35 0.0 0 1 234.69 133.95
  Q 232.74 137.15 230.88 140.40
  C 229.54 142.74 229.97 144.98 229.96 147.48
  Q 229.96 148.00 229.44 148.00
  L 226.76 147.99
  A 0.49 0.48 -0.0 0 1 226.27 147.51
  L 226.26 142.46
  Q 226.26 142.05 226.05 141.69
  L 221.49 133.96
  Q 221.17 133.42 221.79 133.44
  L 224.64 133.48
  Q 225.39 133.50 225.75 134.16
  L 227.83 137.98
  Q 228.20 138.67 228.57 137.98
  Z"
/>
<path fill="#b54048" d="
  M 264.2859 141.8435
  A 6.34 6.34 0.0 0 1 257.9792 148.2167
  L 256.7392 148.2231
  A 6.34 6.34 0.0 0 1 250.3661 141.9164
  L 250.3541 139.6165
  A 6.34 6.34 0.0 0 1 256.6608 133.2433
  L 257.9008 133.2369
  A 6.34 6.34 0.0 0 1 264.2739 139.5436
  L 264.2859 141.8435
  Z
  M 257.3300 145.6300
  A 4.90 3.34 90.0 0 0 260.6700 140.7300
  A 4.90 3.34 90.0 0 0 257.3300 135.8300
  A 4.90 3.34 90.0 0 0 253.9900 140.7300
  A 4.90 3.34 90.0 0 0 257.3300 145.6300
  Z"
/>
<path fill="#b54048" d="
  M 364.68 138.34
  C 367.75 139.48 373.15 139.77 371.62 144.66
  C 370.21 149.16 363.97 148.76 360.49 147.22
  Q 360.21 147.10 360.22 146.81
  L 360.23 143.80
  A 0.19 0.19 0.0 0 1 360.54 143.66
  Q 363.36 146.05 367.07 145.39
  A 1.00 1.00 0.0 0 0 367.80 144.83
  Q 368.55 143.25 367.26 142.92
  C 364.37 142.17 361.16 141.74 360.44 139.11
  C 358.71 132.76 367.41 132.68 370.92 134.03
  Q 371.26 134.16 371.26 134.53
  L 371.24 137.22
  A 0.21 0.21 0.0 0 1 370.91 137.40
  C 369.05 136.21 366.68 135.22 364.54 136.35
  A 1.09 1.09 0.0 0 0 364.68 138.34
  Z"
/>
<path fill="#b54048" d="
  M 455.98 137.82
  C 445.67 129.90 444.78 150.84 455.66 143.97
  Q 456.24 143.60 456.24 144.29
  L 456.25 146.31
  Q 456.25 147.02 455.61 147.32
  Q 453.03 148.56 450.28 148.21
  C 439.63 146.85 443.50 128.15 455.97 134.25
  Q 456.26 134.39 456.25 134.71
  L 456.23 137.70
  A 0.16 0.15 -70.2 0 1 455.98 137.82
  Z"
/>
<path fill="#b54048" d="
  M 286.64 145.49
  L 287.29 145.51
  Q 289.70 145.62 289.71 143.20
  L 289.73 133.75
  A 0.28 0.27 -90.0 0 1 290.00 133.47
  L 293.01 133.47
  Q 293.33 133.47 293.34 133.79
  Q 293.41 137.97 293.32 142.19
  C 293.24 145.86 292.19 147.65 288.52 148.17
  C 278.94 149.52 281.13 139.29 281.21 133.80
  Q 281.21 133.48 281.53 133.48
  L 284.49 133.44
  A 0.30 0.30 0.0 0 1 284.79 133.74
  L 284.85 143.64
  A 1.87 1.87 0.0 0 0 286.64 145.49
  Z"
/>
<path fill="#b54048" d="
  M 314.65 143.74
  L 314.67 147.54
  Q 314.67 147.99 314.22 147.99
  L 311.50 148.00
  Q 311.00 148.01 311.00 147.50
  L 311.00 134.01
  Q 311.00 133.52 311.49 133.50
  C 314.13 133.38 318.90 132.97 320.94 134.45
  C 323.21 136.10 322.62 140.03 320.10 141.48
  Q 319.56 141.79 319.94 142.28
  L 323.98 147.37
  Q 324.47 147.99 323.68 147.99
  L 320.80 148.00
  Q 319.97 148.00 319.47 147.34
  L 316.35 143.17
  Q 314.64 140.88 314.65 143.74
  Z
  M 314.68 136.41
  L 314.64 139.69
  A 0.30 0.30 0.0 0 0 314.94 139.99
  L 316.44 140.01
  A 2.10 1.74 0.6 0 0 318.56 138.29
  L 318.56 137.89
  A 2.10 1.74 0.6 0 0 316.48 136.13
  L 314.98 136.11
  A 0.30 0.30 0.0 0 0 314.68 136.41
  Z"
/>
<path fill="#b54048" d="
  M 392.19 143.77
  L 392.23 147.51
  Q 392.23 148.00 391.74 148.00
  L 388.99 147.99
  Q 388.49 147.99 388.49 147.49
  L 388.50 133.99
  Q 388.50 133.43 389.06 133.44
  Q 390.64 133.48 394.74 133.51
  C 401.42 133.56 401.12 142.10 395.54 143.12
  Q 394.86 143.24 392.69 143.26
  Q 392.19 143.27 392.19 143.77
  Z
  M 392.22 136.49
  L 392.18 140.15
  A 0.36 0.36 0.0 0 0 392.54 140.52
  L 393.46 140.52
  A 2.48 2.01 0.5 0 0 395.96 138.54
  L 395.96 138.18
  A 2.48 2.01 0.5 0 0 393.50 136.14
  L 392.58 136.14
  A 0.36 0.36 0.0 0 0 392.22 136.49
  Z"
/>
<path fill="#b54048" d="
  M 419.35 145.30
  L 418.81 147.71
  A 0.37 0.37 0.0 0 1 418.44 148.00
  L 415.44 148.00
  A 0.37 0.37 0.0 0 1 415.09 147.51
  L 419.76 133.71
  A 0.37 0.37 0.0 0 1 420.12 133.46
  L 423.60 133.47
  A 0.37 0.37 0.0 0 1 423.94 133.72
  L 428.61 147.50
  A 0.37 0.37 0.0 0 1 428.26 147.99
  L 425.22 148.01
  A 0.37 0.37 0.0 0 1 424.87 147.74
  L 424.19 145.27
  A 0.37 0.37 0.0 0 0 423.84 145.00
  L 419.71 145.01
  A 0.37 0.37 0.0 0 0 419.35 145.30
  Z
  M 421.62 138.11
  L 420.51 141.80
  Q 420.34 142.36 420.93 142.36
  L 422.75 142.39
  Q 423.29 142.39 423.12 141.88
  L 421.92 138.11
  A 0.16 0.16 0.0 0 0 421.62 138.11
  Z"
/>
<path fill="#b54048" d="
  M 476.76 142.04
  L 476.74 144.72
  A 0.51 0.51 0.0 0 0 477.25 145.23
  L 482.48 145.24
  A 0.51 0.51 0.0 0 1 482.99 145.75
  L 483.00 147.47
  A 0.51 0.51 0.0 0 1 482.49 147.98
  L 473.64 148.01
  A 0.51 0.51 0.0 0 1 473.13 147.50
  L 473.13 133.97
  A 0.51 0.51 0.0 0 1 473.64 133.46
  L 482.48 133.46
  A 0.51 0.51 0.0 0 1 482.99 133.98
  L 482.94 135.73
  A 0.51 0.51 0.0 0 1 482.43 136.23
  L 477.27 136.24
  A 0.51 0.51 0.0 0 0 476.76 136.75
  L 476.76 138.23
  A 0.51 0.51 0.0 0 0 477.26 138.74
  L 482.04 138.80
  A 0.51 0.51 0.0 0 1 482.54 139.33
  L 482.49 141.05
  A 0.51 0.51 0.0 0 1 481.98 141.54
  L 477.27 141.53
  A 0.51 0.51 0.0 0 0 476.76 142.04
  Z"
/>
<ellipse fill="#ffffff" cx="0.00" cy="0.00" transform="translate(257.33,140.73) rotate(90.0)" rx="4.90" ry="3.34"/>
<path fill="#ffffff" d="
  M 314.68 136.41
  A 0.30 0.30 0.0 0 1 314.98 136.11
  L 316.48 136.13
  A 2.10 1.74 0.6 0 1 318.56 137.89
  L 318.56 138.29
  A 2.10 1.74 0.6 0 1 316.44 140.01
  L 314.94 139.99
  A 0.30 0.30 0.0 0 1 314.64 139.69
  L 314.68 136.41
  Z"
/>
<path fill="#ffffff" d="
  M 392.22 136.49
  A 0.36 0.36 0.0 0 1 392.58 136.14
  L 393.50 136.14
  A 2.48 2.01 0.5 0 1 395.96 138.18
  L 395.96 138.54
  A 2.48 2.01 0.5 0 1 393.46 140.52
  L 392.54 140.52
  A 0.36 0.36 0.0 0 1 392.18 140.15
  L 392.22 136.49
  Z"
/>
<path fill="#ffffff" d="
  M 421.62 138.11
  A 0.16 0.16 0.0 0 1 421.92 138.11
  L 423.12 141.88
  Q 423.29 142.39 422.75 142.39
  L 420.93 142.36
  Q 420.34 142.36 420.51 141.80
  L 421.62 138.11
  Z"
/>
</svg>
