<?xml version="1.0" encoding="UTF-8"?>
<!-- Generator: visioncortex VTracer 0.6.2 -->
<svg version="1.1" xmlns="http://www.w3.org/2000/svg" width="1280" height="392">
<path d="M0 0 C422.4 0 844.8 0 1280 0 C1280 129.36 1280 258.72 1280 392 C857.6 392 435.2 392 0 392 C0 262.64 0 133.28 0 0 Z " fill="#FCFCFC" transform="translate(0,0)"/>
<path d="M0 0 C1.41047141 0.00084819 2.82094415 0.0003674 4.23141479 -0.00132751 C8.02621574 -0.00218143 11.82072696 0.01534524 15.61546111 0.03639436 C19.59391129 0.05526298 23.57236952 0.05691957 27.55085754 0.06047058 C35.0693645 0.06976133 42.58773917 0.09433448 50.10618812 0.12451905 C58.67216236 0.15815603 67.23814321 0.17457235 75.80416715 0.18960536 C93.41094355 0.22088701 111.01759154 0.27358913 128.62426758 0.34057617 C131.61790226 6.32784553 130.88842414 14.8706821 131.17504883 21.45776367 C131.21688797 22.40892059 131.25872711 23.36007751 131.30183411 24.34005737 C131.73929004 35.047448 131.82446538 45.75037066 131.81176758 56.46557617 C131.81083099 57.5037146 131.80989441 58.54185303 131.80892944 59.6114502 C131.64936053 142.05591227 117.48968695 223.43242844 62.62426758 364.34057617 C62.26278122 365.19799408 61.90129486 366.05541199 61.52885437 366.93881226 C59.62426758 369.34057617 59.62426758 369.34057617 56.25572205 369.96203613 C54.83962259 369.98568383 53.4228997 369.98150661 52.00683594 369.95581055 C50.84521439 369.96413406 50.84521439 369.96413406 49.66012573 369.97262573 C47.09416196 369.98445593 44.52995236 369.96009949 41.96411133 369.93432617 C40.17631613 369.93261469 38.38851841 369.93268114 36.60072327 369.93444824 C32.8470163 369.93279265 29.0939048 369.91406324 25.34033203 369.88256836 C20.55113961 369.84309032 15.76273464 369.83849841 10.97341061 369.84603119 C7.27652397 369.84911763 3.57981108 369.83691791 -0.117033 369.81990051 C-1.88109685 369.81291107 -3.6451804 369.80974101 -5.40925789 369.81059265 C-21.78398596 369.79859114 -34.54580384 367.49924788 -46.68823242 355.40307617 C-56.34798531 343.8193068 -58.6858459 327.10074376 -58.64315796 312.56439209 C-58.64768907 311.41824755 -58.65222018 310.27210301 -58.6568886 309.09122682 C-58.66949355 305.27163237 -58.66791474 301.45218123 -58.66625977 297.63256836 C-58.67116393 294.88536547 -58.67899752 292.13817247 -58.68661499 289.39097595 C-58.70317593 282.71537824 -58.7087223 276.03981586 -58.70983975 269.36419931 C-58.71079251 263.93406083 -58.71491416 258.50393394 -58.721241 253.07379913 C-58.73883964 237.65394854 -58.74808197 222.2341257 -58.74658005 206.81426498 C-58.74650014 205.98425139 -58.74642022 205.15423779 -58.74633789 204.29907227 C-58.74625613 203.46803688 -58.74617437 202.63700149 -58.74609013 201.78078321 C-58.74527751 188.31782089 -58.76441265 174.85497053 -58.79261462 161.39204058 C-58.8213918 147.54447648 -58.83515228 133.69696689 -58.83342707 119.84937215 C-58.83276486 112.08459951 -58.83818282 104.31994426 -58.85978317 96.55519867 C-58.8780587 89.94366443 -58.88229031 83.33230081 -58.86876433 76.72075215 C-58.86226656 73.35276157 -58.86420483 69.9853627 -58.87947083 66.61736107 C-58.96529898 46.36285875 -58.15150479 29.70697655 -43.81323242 14.09057617 C-31.82083739 2.62037251 -15.9722271 -0.13276255 0 0 Z " fill="#8D1800" transform="translate(181.375732421875,10.659423828125)"/>
<path d="M0 0 C0.94455048 -0.00852997 1.88910095 -0.01705994 2.86227417 -0.02584839 C4.41443634 -0.02448883 4.41443634 -0.02448883 5.99795532 -0.02310181 C7.6351503 -0.03317764 7.6351503 -0.03317764 9.30541992 -0.04345703 C12.92774978 -0.06251123 16.54989481 -0.06636605 20.17227173 -0.06851196 C22.6927498 -0.07493853 25.21322712 -0.08166679 27.73370361 -0.08868408 C33.02818835 -0.10067809 38.32260427 -0.1044487 43.61709595 -0.10317993 C49.70811228 -0.10198364 55.79877131 -0.12297945 61.88969743 -0.15466726 C67.77098811 -0.18415898 73.65213978 -0.19115067 79.53349686 -0.18996048 C82.02358068 -0.19231011 84.51366755 -0.20109739 87.00370407 -0.21662521 C112.08994275 -0.35831354 112.08994275 -0.35831354 122.39883423 4.26742554 C123.24505341 4.6449295 124.09127258 5.02243347 124.96313477 5.41137695 C134.27616874 9.85782697 140.24199196 17.1907097 144.83633423 26.20492554 C145.16641479 26.84857056 145.49649536 27.49221558 145.83657837 28.15536499 C150.0962877 37.06365066 150.6948896 46.17077228 150.65953064 55.91625977 C150.66335619 57.04874252 150.66718173 58.18122527 150.67112321 59.34802568 C150.68139547 63.12149992 150.67747197 66.89482036 150.67349243 70.66830444 C150.67675065 73.38270504 150.68296229 76.09709723 150.6889801 78.81149292 C150.70169623 85.40755491 150.70352453 92.00357613 150.70117984 98.59964831 C150.69939249 103.96636331 150.70115525 109.33306599 150.70540428 114.69977951 C150.70599947 115.46535547 150.70659466 116.23093143 150.70720788 117.01970666 C150.70841972 118.57532562 150.70963386 120.13094458 150.71085026 121.68656354 C150.72171463 136.25999624 150.71956897 150.83340577 150.71346541 165.40683977 C150.7083014 178.71000223 150.71954004 192.01309135 150.73856363 205.31623931 C150.75798487 219.00335027 150.76619028 232.69042662 150.76244038 246.37755144 C150.76053429 254.0507024 150.76295751 261.72379103 150.77715492 269.39693069 C150.78912473 275.93189932 150.79041162 282.46676727 150.77836476 289.00173743 C150.77251398 292.32938424 150.77292621 295.65669821 150.78336716 298.98435593 C150.90459576 340.64630377 150.90459576 340.64630377 137.39883423 356.26742554 C136.87418579 356.88617554 136.34953735 357.50492554 135.80899048 358.14242554 C129.49977659 365.03060258 121.54373531 368.97194859 112.19824219 369.42132568 C110.99261627 369.4341861 109.78699036 369.44704651 108.54483032 369.46029663 C107.8759227 369.46847412 107.20701508 369.47665161 106.51783752 369.4850769 C104.31932444 369.5097561 102.12087469 369.52639315 99.92227173 369.54086304 C99.16935474 369.54618671 98.41643776 369.55151039 97.64070511 369.55699539 C93.66263093 369.58363874 89.68458732 369.60304971 85.70645142 369.61752319 C82.41417955 369.6309094 79.12252063 369.65885865 75.83047485 369.69955444 C71.85000442 369.74875004 67.87009329 369.77362586 63.88933182 369.78075027 C62.37339787 369.78747538 60.85747705 369.80273031 59.34171677 369.82664108 C57.22515746 369.85815064 55.11077984 369.8583541 52.99404907 369.85092163 C51.79001434 369.85900848 50.58597961 369.86709534 49.34545898 369.87542725 C46.39883423 369.26742554 46.39883423 369.26742554 44.60403442 367.04507446 C43.48192992 364.45893783 42.43146887 361.909272 41.52041626 359.24154663 C41.18172516 358.25789124 40.84303406 357.27423584 40.49407959 356.26077271 C40.13522675 355.19820251 39.7763739 354.13563232 39.40664673 353.04086304 C39.02434906 351.92189636 38.64205139 350.80292969 38.24816895 349.65005493 C36.99908702 345.98338593 35.76035556 342.31334823 34.52383423 338.64242554 C34.0945531 337.37162593 33.66519073 336.10085375 33.23574829 334.83010864 C6.78087977 256.47680718 -18.63106837 172.48871813 -19.85116577 79.01742554 C-19.85184052 78.14058105 -19.85251526 77.26373657 -19.85321045 76.36032104 C-19.78820934 22.89903473 -19.78820934 22.89903473 -7.60116577 2.26742554 C-4.42306381 0.1486909 -3.63937343 0.01485709 0 0 Z " fill="#8D1800" transform="translate(447.6011657714844,10.732574462890625)"/>
<path d="M0 0 C25.30809918 21.57286768 27.33097781 86.49991134 29.83856201 116.90026855 C30.39958411 124.1971616 30.79929978 131.50472454 31.1875 138.8125 C31.23038147 139.6099765 31.27326294 140.407453 31.31744385 141.22909546 C31.43990949 143.55483148 31.55544133 145.88079477 31.66796875 148.20703125 C31.70217422 148.87191559 31.7363797 149.53679993 31.7716217 150.22183228 C32.10163952 157.477646 32.0285193 164.73853921 32 172 C23.28155997 172.02312611 14.56313044 172.04091646 5.84466648 172.05181217 C1.79674258 172.05704041 -2.25116041 172.06413699 -6.29907227 172.07543945 C-10.20235971 172.08627043 -14.10562699 172.09227728 -18.0089283 172.09487724 C-19.50133647 172.09673111 -20.99374348 172.100351 -22.48614311 172.10573006 C-24.56948139 172.11294331 -26.65273531 172.11399083 -28.73608398 172.11352539 C-30.51812477 172.11685631 -30.51812477 172.11685631 -32.33616638 172.12025452 C-35 172 -35 172 -36 171 C-36.73781147 160.22609055 -35.41399816 149.33739134 -34.375 138.625 C-34.28796814 137.71692596 -34.20093628 136.80885193 -34.11126709 135.8732605 C-29.67076962 90.09527001 -23.83874899 40.22788892 0 0 Z " fill="#8D1800" transform="translate(348,104)"/>
<path d="M0 0 C9.00163442 8.42417108 14.70146619 19.24200138 15.21875 31.65234375 C15.2317327 33.4973667 15.22352126 35.34264703 15.1953125 37.1875 C15.18443604 38.15534424 15.17355957 39.12318848 15.16235352 40.12036133 C14.87807341 52.84216409 11.7278727 62.79377412 2.90234375 72.3203125 C-7.87417317 82.25793888 -18.75459083 84.60335742 -33.0546875 84.5625 C-34.73498047 84.58666992 -34.73498047 84.58666992 -36.44921875 84.61132812 C-51.06154392 84.6198534 -62.27822527 79.71953003 -72.9453125 69.78125 C-76.52847903 65.72199841 -78.40970417 61.31929435 -80.1796875 56.25 C-80.5921875 55.115625 -81.0046875 53.98125 -81.4296875 52.8125 C-84.4508837 38.46181807 -83.00346832 24.36497386 -76.1796875 11.25 C-67.72636729 -0.84526449 -55.81124673 -6.47180874 -41.6796875 -9.5 C-27.1041804 -10.54110765 -11.83306241 -9.50037985 0 0 Z " fill="#8D1800" transform="translate(1028.1796875,180.75)"/>
<path d="M0 0 C0.95416306 -0.00637985 1.90832611 -0.0127597 2.8914032 -0.01933289 C4.4181945 -0.02100212 4.4181945 -0.02100212 5.97583008 -0.02270508 C7.02942215 -0.02603348 8.08301422 -0.02936188 9.16853333 -0.03279114 C11.39002039 -0.03784439 13.61151501 -0.04019996 15.83300781 -0.04003906 C19.2433706 -0.04223505 22.65341472 -0.06043367 26.0637207 -0.0793457 C28.22192272 -0.08227797 30.38012627 -0.08426388 32.53833008 -0.08520508 C33.56226364 -0.09239059 34.5861972 -0.09957611 35.64115906 -0.10697937 C36.58586563 -0.10390274 37.5305722 -0.10082611 38.50390625 -0.09765625 C39.75369514 -0.09979378 39.75369514 -0.09979378 41.0287323 -0.10197449 C43.05786133 0.14526367 43.05786133 0.14526367 45.05786133 2.14526367 C45.30395699 4.46846962 45.30395699 4.46846962 45.29837036 7.43496704 C45.30111969 8.55679886 45.30386902 9.67863068 45.30670166 10.8344574 C45.29591583 12.68914391 45.29591583 12.68914391 45.28491211 14.58129883 C45.28520416 15.87881577 45.28549622 17.1763327 45.28579712 18.51316833 C45.28637233 22.07704086 45.27459089 25.6407795 45.2606492 29.20462084 C45.24816984 32.92688352 45.24697356 36.64914907 45.24459839 40.37142944 C45.23837538 47.42271162 45.22195351 54.47393198 45.20189941 61.5251869 C45.17956589 69.55167405 45.1685534 77.57816411 45.15850854 85.60467458 C45.13758796 102.1182405 45.1023961 118.6317442 45.05786133 135.14526367 C42.07863539 135.17210355 39.09964838 135.19202404 36.12036133 135.20776367 C35.27022461 135.21614258 34.42008789 135.22452148 33.54418945 135.2331543 C32.73530273 135.23637695 31.92641602 135.23959961 31.09301758 135.24291992 C30.34415283 135.24815674 29.59528809 135.25339355 28.82373047 135.25878906 C27.05786133 135.14526367 27.05786133 135.14526367 26.05786133 134.14526367 C25.95006278 132.6655356 25.91104277 131.18073396 25.89964294 129.6971283 C25.88985413 128.73654007 25.88006531 127.77595184 25.86997986 126.78625488 C25.8642244 125.72386597 25.85846893 124.66147705 25.85253906 123.56689453 C25.84263947 122.45484146 25.83273987 121.34278839 25.82254028 120.19703674 C25.7908161 116.50141569 25.76612485 112.80578176 25.74145508 109.11010742 C25.72089497 106.55562495 25.69989876 104.00114596 25.67848206 101.44667053 C25.62882566 95.39767876 25.58358573 89.34866937 25.54045969 83.29962879 C25.49112886 76.41457792 25.43619538 69.52957536 25.3807801 62.64457119 C25.2668853 48.47818042 25.16006267 34.31174328 25.05786133 20.14526367 C20.66539823 20.07043793 16.2732846 20.01634684 11.88037109 19.98046875 C10.38974535 19.96549325 8.89916281 19.94510548 7.40869141 19.91894531 C-7.65090723 19.52570442 -7.65090723 19.52570442 -20.59838867 26.50073242 C-27.51744512 34.96853115 -29.26537144 44.99255926 -29.06713867 55.58276367 C-29.05811523 56.50508789 -29.0490918 57.42741211 -29.03979492 58.37768555 C-29.01641527 60.63382176 -28.98364783 62.88940051 -28.94213867 65.14526367 C-26.30089366 65.14526367 -24.99633368 64.12601219 -22.69213867 62.83276367 C-13.52973539 58.21879235 -3.96924479 56.89758669 6.18286133 56.77026367 C7.26676147 56.74935669 7.26676147 56.74935669 8.37255859 56.72802734 C11.36965584 56.75527047 13.77475945 57.02246712 16.53442383 58.21948242 C18.87027784 61.17224147 18.44334542 63.64082212 18.30786133 67.33276367 C18.27176758 68.60506836 18.23567383 69.87737305 18.19848633 71.18823242 C18.15208008 72.16405273 18.10567383 73.13987305 18.05786133 74.14526367 C16.79973633 74.17104492 15.54161133 74.19682617 14.24536133 74.22338867 C0.17024962 74.63915007 -14.58478736 75.07858151 -25.75463867 84.70776367 C-28.03315895 87.46597243 -28.08191099 90.29053441 -28.14746094 93.70849609 C-28.16740616 94.62922409 -28.18735138 95.54995209 -28.207901 96.49858093 C-28.23296974 97.98464592 -28.23296974 97.98464592 -28.25854492 99.50073242 C-28.27932602 100.51750565 -28.30010712 101.53427887 -28.32151794 102.5818634 C-28.38693915 105.8320943 -28.44586404 109.08240644 -28.50463867 112.33276367 C-28.54783094 114.53524606 -28.59144546 116.7377202 -28.63549805 118.94018555 C-28.74261294 124.3417922 -28.84439324 129.74347979 -28.94213867 135.14526367 C-31.56741056 135.19908474 -34.1915858 135.2388468 -36.81713867 135.27026367 C-37.56350586 135.28702148 -38.30987305 135.3037793 -39.07885742 135.32104492 C-41.03408328 135.33865957 -42.98955889 135.24846556 -44.94213867 135.14526367 C-47.94013063 132.14727172 -47.24528236 128.80828564 -47.24853516 124.78686523 C-47.25685867 123.92148636 -47.26518219 123.05610748 -47.27375793 122.164505 C-47.29795015 119.28825426 -47.30664641 116.41223057 -47.31323242 113.53588867 C-47.32220019 111.53204277 -47.33132206 109.52819756 -47.34059143 107.52435303 C-47.3571148 103.31089656 -47.36478615 99.09751977 -47.36767578 94.8840332 C-47.37302659 89.51778198 -47.41055442 84.15229544 -47.45641994 78.7862587 C-47.4863759 74.63888933 -47.49340353 70.49169872 -47.49440193 66.34423065 C-47.49857681 64.36851291 -47.51089964 62.39279326 -47.53191948 60.41718292 C-47.71242795 41.96344089 -44.11959654 26.16005851 -31.17651367 12.21948242 C-22.80069361 4.44402709 -11.40935791 0.05204792 0 0 Z " fill="#8D1800" transform="translate(709.942138671875,130.854736328125)"/>
<path d="M0 0 C0.65378128 -0.00014603 1.30756256 -0.00029205 1.9811554 -0.0004425 C4.14551086 0.00025504 6.30978063 0.00803999 8.47412109 0.01586914 C9.97341871 0.01773388 11.47271694 0.01915752 12.97201538 0.02015686 C16.92087482 0.0239776 20.86969756 0.03380411 24.81854248 0.04486084 C28.84695947 0.05508448 32.87538238 0.05965653 36.90380859 0.06469727 C44.81007545 0.07542677 52.71631246 0.09249789 60.62255859 0.11352539 C66.5852768 14.69878614 65.93385125 31.76106782 65.99755859 47.30102539 C66.00906952 48.49115234 66.00906952 48.49115234 66.02081299 49.70532227 C66.16767673 68.70821399 66.16767673 68.70821399 62.62255859 77.11352539 C62.24886139 78.0334024 62.24886139 78.0334024 61.86761475 78.97186279 C60.6671207 81.24424968 59.67933745 82.55348642 57.62255859 84.11352539 C53.14826729 85.13691886 48.75611461 84.99868148 44.18505859 84.90258789 C42.21581421 84.89840347 42.21581421 84.89840347 40.20678711 84.89413452 C37.43226973 84.88641888 34.65934179 84.85552523 31.88525391 84.80639648 C28.33757357 84.74413149 24.79141495 84.72555592 21.24324036 84.72260475 C17.84863104 84.7167606 14.45452755 84.68453798 11.06005859 84.65258789 C9.78912354 84.64611237 8.51818848 84.63963684 7.20874023 84.63296509 C6.02401123 84.61059784 4.83928223 84.58823059 3.61865234 84.56518555 C2.57894287 84.55073395 1.5392334 84.53628235 0.46801758 84.52139282 C-2.8185399 84.05029843 -4.71795615 83.07598 -7.37744141 81.11352539 C-8.70556641 78.59008789 -8.70556641 78.59008789 -9.62744141 75.73852539 C-9.94197266 74.80266602 -10.25650391 73.86680664 -10.58056641 72.90258789 C-12.04817488 67.76595823 -12.54637056 62.9618535 -12.58056641 57.62915039 C-12.58739944 56.90402756 -12.59423248 56.17890472 -12.60127258 55.43180847 C-12.61837731 53.075667 -12.62460825 50.71972544 -12.62744141 48.36352539 C-12.6294455 47.56294708 -12.63144958 46.76236877 -12.6335144 45.93753052 C-12.65311623 13.94054986 -12.65311623 13.94054986 -8.37744141 1.11352539 C-5.54349754 -0.30344654 -3.16870402 -0.0059339 0 0 Z " fill="#8D1800" transform="translate(320.37744140625,295.886474609375)"/>
<path d="M0 0 C1.90072266 0.02126953 1.90072266 0.02126953 3.83984375 0.04296875 C5.74443359 0.05263672 5.74443359 0.05263672 7.6875 0.0625 C10.77734375 0.23046875 10.77734375 0.23046875 11.77734375 1.23046875 C11.88510046 3.09544844 11.92361468 4.96446444 11.93505859 6.83251953 C11.94532074 8.03111603 11.95558289 9.22971252 11.96615601 10.46463013 C11.97345734 11.77181 11.98075867 13.07898987 11.98828125 14.42578125 C12.00124213 15.77522605 12.01505789 17.1246629 12.0296936 18.47409058 C12.09132472 24.21442412 12.14520282 29.95474069 12.17871094 35.6953125 C12.19974714 39.20446456 12.23513071 42.71323261 12.27946854 46.22216415 C12.3004002 48.20223545 12.30566462 50.18245249 12.31063843 52.16262817 C12.22556734 62.30580794 12.22556734 62.30580794 17.22860718 70.72537231 C23.55308521 75.61908755 31.12512971 75.00924205 38.77734375 75.04296875 C40.13806027 75.06614989 41.4987413 75.09152267 42.859375 75.11914062 C46.16565866 75.17776268 49.47062557 75.21422813 52.77734375 75.23046875 C52.77290253 74.32036041 52.7684613 73.41025208 52.7638855 72.4725647 C52.72386199 63.90840296 52.69338649 55.34427249 52.67371941 46.78003883 C52.66326857 42.37675624 52.64908579 37.97355073 52.62646484 33.5703125 C52.60478263 29.32337051 52.59278492 25.07650279 52.58758926 20.82950974 C52.58388517 19.20673833 52.57665229 17.58397113 52.56588364 15.96123123 C52.55142995 13.69362758 52.54936321 11.42633347 52.55029297 9.15869141 C52.54585175 7.86629547 52.54141052 6.57389954 52.53683472 5.24234009 C52.77734375 2.23046875 52.77734375 2.23046875 54.77734375 0.23046875 C57.34026692 0.05883144 59.78080232 -0.00217683 62.33984375 0.04296875 C63.03787109 0.04361328 63.73589844 0.04425781 64.45507812 0.04492188 C69.63703217 0.09015717 69.63703217 0.09015717 70.77734375 1.23046875 C70.89403231 4.27186029 70.9453817 7.29082941 70.9543457 10.33325195 C70.9609169 11.28947952 70.9674881 12.24570709 70.97425842 13.23091125 C70.99406026 16.41435823 71.00567476 19.59775768 71.015625 22.78125 C71.01970053 23.86861135 71.02377605 24.95597271 71.02797508 26.07628441 C71.04887397 31.84130032 71.06315408 37.60629223 71.07250977 43.37133789 C71.08352857 49.30825008 71.11786503 55.24478273 71.15768147 61.18156147 C71.18393391 65.75860757 71.1922097 70.33556491 71.19579124 74.91267967 C71.20064192 77.09937261 71.21221218 79.28606198 71.23082924 81.47268105 C71.35936426 97.5825364 70.55170288 110.38154357 59.77734375 123.23046875 C58.95169922 124.22046875 58.95169922 124.22046875 58.109375 125.23046875 C46.47177355 137.15066096 25.16903028 137.08809193 9.62280273 137.44995117 C7.77734375 137.23046875 7.77734375 137.23046875 5.77734375 135.23046875 C5.51171875 132.04296875 5.51171875 132.04296875 5.52734375 128.23046875 C5.5221875 126.97234375 5.51703125 125.71421875 5.51171875 124.41796875 C5.77734375 121.23046875 5.77734375 121.23046875 7.77734375 119.23046875 C10.04882812 118.97509766 10.04882812 118.97509766 12.87109375 118.95703125 C14.41796875 118.92609375 14.41796875 118.92609375 15.99609375 118.89453125 C18.15226802 118.86886251 20.3085426 118.85041385 22.46484375 118.83984375 C32.06919213 118.62588549 40.24823201 116.52554259 47.37109375 109.7890625 C50.87623835 105.90419391 51.92284666 102.65392188 51.84375 97.53125 C51.8341626 96.72469971 51.8245752 95.91814941 51.81469727 95.0871582 C51.80237061 94.47445068 51.79004395 93.86174316 51.77734375 93.23046875 C50.92092285 93.21588623 50.06450195 93.20130371 49.18212891 93.1862793 C45.95749236 93.12466065 42.73344497 93.05040879 39.50927734 92.96801758 C38.1226672 92.93507956 36.73593298 92.90695435 35.34912109 92.8840332 C21.5810913 92.65042403 10.56554094 90.81371338 0.40234375 80.91796875 C-3.94179787 73.73342683 -4.67997171 66.51473251 -4.734375 58.265625 C-4.7523262 57.23344345 -4.7702774 56.2012619 -4.78877258 55.13780212 C-4.84252012 51.85623285 -4.87653242 48.57479923 -4.91015625 45.29296875 C-4.94339016 43.12563117 -4.97788525 40.95831255 -5.01367188 38.79101562 C-5.09563401 33.57684849 -5.15121733 28.36287577 -5.1942749 23.14825439 C-5.22159801 20.33926222 -5.26473978 17.53090247 -5.31103516 14.72216797 C-5.33027561 13.07780552 -5.3490259 11.43343722 -5.3671875 9.7890625 C-5.38279221 9.04374771 -5.39839691 8.29843292 -5.41447449 7.53053284 C-5.42697173 5.76273232 -5.33458894 3.99476632 -5.22265625 2.23046875 C-3.22265625 0.23046875 -3.22265625 0.23046875 0 0 Z " fill="#8D1800" transform="translate(1130.22265625,169.76953125)"/>
<path d="M0 0 C2.29160319 -0.02692484 4.58329546 -0.04636124 6.875 -0.0625 C8.15117188 -0.07410156 9.42734375 -0.08570313 10.7421875 -0.09765625 C14 0 14 0 16 1 C16.33 13.87 16.66 26.74 17 40 C27.36459999 40.16992499 27.36459999 40.16992499 37.72973633 40.29785156 C48.13981819 40.54067466 58.46016247 41.51502657 66.43359375 49.02734375 C72.50814776 56.67734319 75.13220727 64.91325806 75.11352539 74.53442383 C75.11341209 76.48588066 75.11341209 76.48588066 75.11329651 78.47676086 C75.10819062 79.88685139 75.10297464 81.29694151 75.09765625 82.70703125 C75.09578979 84.15720063 75.09436696 85.60737065 75.09336853 87.05754089 C75.0895613 90.86332966 75.07974642 94.66907991 75.06866455 98.47485352 C75.05841177 102.36278767 75.05386264 106.25072808 75.04882812 110.13867188 C75.03812246 117.75913209 75.0210677 125.37956064 75 133 C72.35409986 133.02684679 69.70846904 133.04676357 67.0625 133.0625 C66.30775391 133.07087891 65.55300781 133.07925781 64.77539062 133.08789062 C62.85005687 133.09652441 60.92464419 133.05224333 59 133 C57.22386368 131.22386368 57.875042 128.63303553 57.87402344 126.23022461 C57.87021667 124.9948143 57.86640991 123.75940399 57.86248779 122.48655701 C57.86229393 121.82157133 57.86210007 121.15658566 57.86190033 120.4714489 C57.85848844 117.6759501 57.83712105 114.88068461 57.81666946 112.08526707 C57.77867056 106.87851169 57.74737435 101.67199763 57.74951172 96.46508789 C57.75030256 92.84555247 57.72677066 89.22686068 57.6876297 85.60754585 C57.67721642 84.23260868 57.67561113 82.85757354 57.68328094 81.48261833 C57.71918724 74.32619649 57.66727763 68.47690009 53.55841064 62.43458557 C44.53051523 54.1240106 22.4344121 59 16 59 C16 83.09 16 107.18 16 132 C11.05 132 6.1 132 1 132 C0 131 0 131 -0.12304783 128.83107662 C-0.12212604 127.86595937 -0.12120424 126.90084211 -0.12025452 125.90647888 C-0.12162918 124.80285004 -0.12300385 123.69922119 -0.12442017 122.56214905 C-0.12082489 121.34079758 -0.11722961 120.11944611 -0.11352539 118.86108398 C-0.11367142 117.58322021 -0.11381744 116.30535645 -0.1139679 114.98876953 C-0.11425585 111.47446409 -0.1083594 107.9601925 -0.10139394 104.44589496 C-0.09516012 100.77700644 -0.09455658 97.10811723 -0.09336853 93.43922424 C-0.0902553 86.48709565 -0.08204202 79.5349827 -0.07201904 72.58286101 C-0.06085766 64.6700522 -0.05534739 56.75724266 -0.05032361 48.84442794 C-0.0398594 32.56294279 -0.02226011 16.28147339 0 0 Z " fill="#8D1800" transform="translate(857,132)"/>
<path d="M0 0 C2.2092142 0.00544751 4.41823268 -0.00002312 6.62744141 -0.00634766 C8.03238977 -0.00568829 9.43733802 -0.00441008 10.84228516 -0.00244141 C12.74034912 -0.00074951 12.74034912 -0.00074951 14.67675781 0.00097656 C17.55322266 0.13037109 17.55322266 0.13037109 18.55322266 1.13037109 C18.62635832 3.66086511 18.64569793 6.16341946 18.61572266 8.69287109 C18.61121094 9.40378906 18.60669922 10.11470703 18.60205078 10.84716797 C18.5902313 12.60827123 18.57229529 14.36933145 18.55322266 16.13037109 C17.5401001 16.14495361 16.52697754 16.15953613 15.4831543 16.17456055 C11.68642735 16.23299538 7.89026579 16.31022083 4.09399414 16.39282227 C2.45802051 16.42586084 0.82193867 16.45395679 -0.81420898 16.47680664 C-13.4645696 16.50264446 -13.4645696 16.50264446 -25.44677734 20.13037109 C-27.72594401 22.99912109 -27.72594401 22.99912109 -27.63427734 26.50537109 C-26.10297493 31.17987319 -24.52075575 31.63790209 -20.33276367 33.82763672 C-13.997238 36.68749333 -7.32717066 38.6987716 -0.71972656 40.83081055 C1.20223082 41.45450315 3.11997737 42.09112462 5.03759766 42.72802734 C6.16907227 43.09420166 7.30054688 43.46037598 8.46630859 43.83764648 C13.3067981 45.86472588 16.60793196 48.64988786 19.30322266 53.13037109 C19.71056641 53.79037109 20.11791016 54.45037109 20.53759766 55.13037109 C23.65137522 61.26211768 23.23359578 68.79812308 21.80322266 75.38037109 C19.62319713 81.92044766 16.74101975 85.98219363 10.55322266 89.13037109 C0.07981139 92.68823347 -10.39032872 92.53156967 -21.31689453 92.41162109 C-24.23271248 92.37998116 -27.14799086 92.37059168 -30.06396484 92.36474609 C-31.91553402 92.35559317 -33.76709768 92.34522292 -35.61865234 92.33349609 C-36.49140808 92.32924622 -37.36416382 92.32499634 -38.2633667 92.32061768 C-44.32948756 92.24766088 -44.32948756 92.24766088 -45.44677734 91.13037109 C-45.54595304 88.9864259 -45.57647884 86.83910377 -45.57177734 84.69287109 C-45.57435547 83.51853516 -45.57693359 82.34419922 -45.57958984 81.13427734 C-45.44677734 78.13037109 -45.44677734 78.13037109 -44.44677734 76.13037109 C-43.30200928 76.11055176 -42.15724121 76.09073242 -40.9777832 76.0703125 C-36.70787527 75.99391881 -32.43829317 75.90525473 -28.16870117 75.81298828 C-26.32501688 75.77483751 -24.48126168 75.739961 -22.63745117 75.70849609 C-19.97858433 75.66254214 -17.32019981 75.60459949 -14.66162109 75.54443359 C-13.8446727 75.53288239 -13.0277243 75.52133118 -12.1860199 75.50942993 C-6.65057133 75.36847084 -1.28537264 74.9617229 3.49072266 71.88037109 C5.17497653 69.10630589 5.06151901 67.30722333 4.55322266 64.13037109 C0.17026393 58.0022526 -6.75743175 56.52944826 -13.63427734 54.19287109 C-37.95582733 45.87338837 -37.95582733 45.87338837 -44.25927734 35.00537109 C-46.41127489 29.27085741 -46.44465053 23.21712549 -44.56787109 17.41162109 C-41.32967254 10.31537079 -36.90646939 5.41405786 -29.69677734 2.31787109 C-20.21243814 -0.64873231 -9.83930791 -0.02899819 0 0 Z " fill="#8D1800" transform="translate(818.44677734375,173.86962890625)"/>
<path d="M0 0 C0.78761719 -0.00257813 1.57523438 -0.00515625 2.38671875 -0.0078125 C4.3125 0.125 4.3125 0.125 5.3125 1.125 C5.38563567 3.65549402 5.40497527 6.15804837 5.375 8.6875 C5.37048828 9.39841797 5.36597656 10.10933594 5.36132812 10.84179688 C5.34950864 12.60290013 5.33157263 14.36396036 5.3125 16.125 C4.63445312 16.21136719 3.95640625 16.29773438 3.2578125 16.38671875 C-4.26634004 17.52263652 -11.97107234 19.12940406 -17.3515625 24.9140625 C-20.46600573 29.48555519 -22.18086299 34.61230677 -22.6875 40.125 C-21.14179669 41.67070331 -19.6181528 41.32324102 -17.46875 41.40625 C-16.61925781 41.44363281 -15.76976562 41.48101562 -14.89453125 41.51953125 C-14.00121094 41.55433594 -13.10789062 41.58914062 -12.1875 41.625 C-10.42690962 41.69359443 -8.66647259 41.76628952 -6.90625 41.84375 C-6.12185547 41.87404297 -5.33746094 41.90433594 -4.52929688 41.93554688 C-2.6875 42.125 -2.6875 42.125 -1.6875 43.125 C-1.61429837 45.6577765 -1.59522431 48.15603918 -1.625 50.6875 C-1.645625 53.141875 -1.66625 55.59625 -1.6875 58.125 C-12.0825 58.62 -12.0825 58.62 -22.6875 59.125 C-22.6875 83.545 -22.6875 107.965 -22.6875 133.125 C-28.6275 133.125 -34.5675 133.125 -40.6875 133.125 C-41.60490958 129.4553617 -41.80315932 126.74319287 -41.78515625 122.9987793 C-41.78185303 121.76036789 -41.7785498 120.52195648 -41.77514648 119.24601746 C-41.77102753 118.58690054 -41.76690857 117.92778362 -41.76266479 117.24869347 C-41.74985365 115.17553555 -41.7433729 113.10244198 -41.73852539 111.0292511 C-41.72518147 105.87843512 -41.7010301 100.72768015 -41.67712402 95.5769043 C-41.65732479 91.22489064 -41.6417097 86.87290023 -41.63156128 82.52085304 C-41.62512114 80.48746679 -41.61261117 78.45417709 -41.59985352 76.42082214 C-41.59655029 75.17295425 -41.59324707 73.92508636 -41.58984375 72.6394043 C-41.58460693 71.54782516 -41.57937012 70.45624603 -41.57397461 69.33158875 C-41.6964631 65.87183223 -42.14191864 62.54150775 -42.6875 59.125 C-45.6575 58.795 -48.6275 58.465 -51.6875 58.125 C-52.6875 55.125 -52.6875 55.125 -51.03515625 51.76953125 C-50.28372298 50.48610983 -49.52153499 49.20893866 -48.75 47.9375 C-48.36392578 47.28330078 -47.97785156 46.62910156 -47.58007812 45.95507812 C-46.62496912 44.33964684 -45.65739934 42.73159475 -44.6875 41.125 C-43.3675 41.125 -42.0475 41.125 -40.6875 41.125 C-40.605 39.866875 -40.5225 38.60875 -40.4375 37.3125 C-39.20452064 26.5534883 -34.5854864 15.87493928 -26.125 8.875 C-18.77937374 3.77426532 -9.01435121 -0.02979951 0 0 Z " fill="#8D1800" transform="translate(1105.6875,130.875)"/>
<path d="M0 0 C6.26908588 5.65789366 10.22910831 14.06842955 11.0625 22.36328125 C11.46835658 31.33017512 9.30715043 39.20677633 3.625 46.25 C-2.606794 52.79069759 -9.87250752 55.96341048 -18.8125 56.1875 C-29.10204323 56.06247517 -36.75222463 51.80748011 -44.1875 44.875 C-48.89609499 39.29903225 -50.79456458 32.54239721 -51.5625 25.375 C-50.53538804 15.78862173 -47.08601247 7.2941882 -40 0.625 C-27.41851854 -9.478728 -12.88898377 -8.59265584 0 0 Z " fill="#FDFDFD" transform="translate(1014.1875,194.125)"/>
<path d="M0 0 C3.69630815 2.94024512 5.5669376 5.5479528 7 10 C7.30078125 13.15625 7.30078125 13.15625 7.3125 16.5 C7.32925781 17.6034375 7.34601562 18.706875 7.36328125 19.84375 C6.96218557 23.32853831 6.00128134 25.15898503 4 28 C3.608125 28.598125 3.21625 29.19625 2.8125 29.8125 C-0.26254953 31.82718762 -3.50969908 31.59381301 -7 31 C-10.40202054 29.29898973 -12.41965385 28.15276949 -14.14453125 24.7265625 C-16.0140255 18.76808313 -15.83483643 12.2659846 -13.6875 6.4375 C-9.97896155 1.08072224 -6.72454554 -0.80694546 0 0 Z " fill="#8D1800" transform="translate(730,284)"/>
<path d="M0 0 C4.62562504 0.09093627 7.89667435 0.54600979 11.75 3.3125 C14.37708538 6.65606321 14.11734573 10.19822783 13.75 14.3125 C12.375 16.75 12.375 16.75 10.75 18.3125 C10.09 18.3125 9.43 18.3125 8.75 18.3125 C9.1109375 19.01117188 9.471875 19.70984375 9.84375 20.4296875 C10.3078125 21.33976562 10.771875 22.24984375 11.25 23.1875 C11.7140625 24.09242188 12.178125 24.99734375 12.65625 25.9296875 C13.75 28.3125 13.75 28.3125 13.75 30.3125 C11.5625 30.3125 11.5625 30.3125 8.75 29.3125 C6.40770658 26.43211214 3.75 23.12430628 3.75 19.3125 C1.77 19.6425 -0.21 19.9725 -2.25 20.3125 C-2.25 23.6125 -2.25 26.9125 -2.25 30.3125 C-3.9 29.9825 -5.55 29.6525 -7.25 29.3125 C-7.3078304 24.85422074 -7.34353855 20.3960372 -7.375 15.9375 C-7.39175781 14.66648437 -7.40851562 13.39546875 -7.42578125 12.0859375 C-7.43222656 10.87421875 -7.43867187 9.6625 -7.4453125 8.4140625 C-7.46102295 6.73304443 -7.46102295 6.73304443 -7.47705078 5.01806641 C-7.05320992 -0.032476 -4.41900738 0.01811069 0 0 Z " fill="#8D1800" transform="translate(825.25,283.6875)"/>
<path d="M0 0 C6.15167961 0.03689163 10.40242046 0.06890495 15.10546875 4.390625 C17.27401264 8.08518126 17.68763436 11.13887911 16.79296875 15.265625 C14.42445136 19.60790688 14.42445136 19.60790688 11.79296875 21.265625 C9.1243957 21.85221536 6.63158153 22.07537224 3.90234375 22.16015625 C1.80646334 22.02849264 1.80646334 22.02849264 0.79296875 23.265625 C0.42536144 25.59380464 0.09055294 27.9274635 -0.20703125 30.265625 C-1.52703125 29.935625 -2.84703125 29.605625 -4.20703125 29.265625 C-4.26486165 24.80734574 -4.3005698 20.3491622 -4.33203125 15.890625 C-4.34878906 14.61960937 -4.36554687 13.34859375 -4.3828125 12.0390625 C-4.38925781 10.82734375 -4.39570312 9.615625 -4.40234375 8.3671875 C-4.4180542 6.68616943 -4.4180542 6.68616943 -4.43408203 4.97119141 C-4.14889105 1.57281892 -3.47054624 0.41769406 0 0 Z " fill="#8D1800" transform="translate(951.20703125,283.734375)"/>
<path d="M0 0 C1.97387695 0.78222656 1.97387695 0.78222656 3.5559082 4.29785156 C4.04638769 5.78689016 4.51841495 7.28210643 4.97387695 8.78222656 C5.20510254 9.50345703 5.43632813 10.2246875 5.67456055 10.96777344 C6.36290698 13.14892526 7.01633416 15.3379118 7.66137695 17.53222656 C7.88631836 18.2734375 8.11125977 19.01464844 8.34301758 19.77832031 C9.37872296 23.28523761 9.97387695 26.0957258 9.97387695 29.78222656 C8.16137695 29.59472656 8.16137695 29.59472656 5.97387695 28.78222656 C5.56137695 27.93660156 5.14887695 27.09097656 4.72387695 26.21972656 C3.27352456 23.5949042 3.27352456 23.5949042 1.0090332 23.45410156 C-1.00560687 23.46826423 -3.01816725 23.61764002 -5.02612305 23.78222656 C-6.01612305 25.76222656 -7.00612305 27.74222656 -8.02612305 29.78222656 C-9.34612305 29.45222656 -10.66612305 29.12222656 -12.02612305 28.78222656 C-10.40334952 21.81617433 -8.54715668 14.93567483 -6.46362305 8.09472656 C-6.14905151 7.03415039 -6.14905151 7.03415039 -5.828125 5.95214844 C-5.28756853 4.20905121 -4.66346089 2.49231127 -4.02612305 0.78222656 C-2.02612305 -0.21777344 -2.02612305 -0.21777344 0 0 Z " fill="#8D1800" transform="translate(1009.026123046875,284.2177734375)"/>
<path d="M0 0 C1.57043101 0.01330874 3.14079971 0.03717648 4.7109375 0.0703125 C5.51273438 0.07933594 6.31453125 0.08835937 7.140625 0.09765625 C9.12252273 0.12125027 11.10426731 0.15712185 13.0859375 0.1953125 C13.4159375 1.5153125 13.7459375 2.8353125 14.0859375 4.1953125 C13.08691406 4.25589844 12.08789062 4.31648438 11.05859375 4.37890625 C9.76824219 4.46269531 8.47789063 4.54648437 7.1484375 4.6328125 C5.86066406 4.71402344 4.57289062 4.79523438 3.24609375 4.87890625 C0.22569793 4.84450438 0.22569793 4.84450438 -0.9140625 6.1953125 C-0.95487033 8.19489614 -0.95660606 10.19576504 -0.9140625 12.1953125 C2.3859375 12.5253125 5.6859375 12.8553125 9.0859375 13.1953125 C9.4159375 14.5153125 9.7459375 15.8353125 10.0859375 17.1953125 C9.37566406 17.25589844 8.66539063 17.31648438 7.93359375 17.37890625 C6.55494141 17.50458984 6.55494141 17.50458984 5.1484375 17.6328125 C4.23191406 17.71402344 3.31539062 17.79523438 2.37109375 17.87890625 C0.12434018 17.95576226 0.12434018 17.95576226 -0.9140625 19.1953125 C-0.9140625 21.1753125 -0.9140625 23.1553125 -0.9140625 25.1953125 C6.0159375 25.6903125 6.0159375 25.6903125 13.0859375 26.1953125 C13.4159375 27.5153125 13.7459375 28.8353125 14.0859375 30.1953125 C10.94012327 30.22419764 7.79434281 30.24207173 4.6484375 30.2578125 C3.75060547 30.26619141 2.85277344 30.27457031 1.92773438 30.28320312 C0.64672852 30.28803711 0.64672852 30.28803711 -0.66015625 30.29296875 C-1.45091553 30.29820557 -2.2416748 30.30344238 -3.05639648 30.30883789 C-4.9140625 30.1953125 -4.9140625 30.1953125 -5.9140625 29.1953125 C-6.16786484 24.72199292 -6.09928971 20.2374779 -6.1015625 15.7578125 C-6.11993164 13.85805664 -6.11993164 13.85805664 -6.13867188 11.91992188 C-6.14060547 10.71271484 -6.14253906 9.50550781 -6.14453125 8.26171875 C-6.14864014 7.14740479 -6.15274902 6.03309082 -6.15698242 4.88500977 C-5.74827569 0.35966093 -4.41818605 0.22046837 0 0 Z " fill="#8D1800" transform="translate(1106.9140625,283.8046875)"/>
<path d="M0 0 C0.66 0.33 1.32 0.66 2 1 C2.33 8.92 2.66 16.84 3 25 C5.97 25.33 8.94 25.66 12 26 C13.25838557 23.48322887 13.20818973 21.58706712 13.31640625 18.7734375 C13.35830078 17.7421875 13.40019531 16.7109375 13.44335938 15.6484375 C13.48267578 14.56820313 13.52199219 13.48796875 13.5625 12.375 C13.60568359 11.28703125 13.64886719 10.1990625 13.69335938 9.078125 C13.7996453 6.3855483 13.90168057 3.69287747 14 1 C15.32 1.33 16.64 1.66 18 2 C18.14553599 5.89543877 18.23415059 9.79017651 18.3125 13.6875 C18.35439453 14.79029297 18.39628906 15.89308594 18.43945312 17.02929688 C18.56267995 25.18691274 18.56267995 25.18691274 15.76171875 29.234375 C11.69709654 31.83297364 8.66867207 31.93035132 4 31 C0.50109996 28.88608123 -0.70578686 27.88263941 -2 24 C-2.22981985 20.31631611 -2.18515707 16.62761186 -2.1875 12.9375 C-2.19974609 11.91849609 -2.21199219 10.89949219 -2.22460938 9.84960938 C-2.22654297 8.87701172 -2.22847656 7.90441406 -2.23046875 6.90234375 C-2.23457764 6.01023193 -2.23868652 5.11812012 -2.24291992 4.19897461 C-2 2 -2 2 0 0 Z " fill="#8D1800" transform="translate(769,284)"/>
<path d="M0 0 C1.1875 2.0625 1.1875 2.0625 2 4 C-1.82501277 5.3770046 -5.06132308 4.65644615 -9 4 C-9.66 4 -10.32 4 -11 4 C-11.40219013 6.37055419 -11.40219013 6.37055419 -11 9 C-8.9127636 10.77634134 -8.9127636 10.77634134 -6.1875 12.0625 C-2.5450419 13.9599421 -0.12163683 15.42274178 2 19 C2.5 22.5 2.5 22.5 2 26 C0.125 28.4375 0.125 28.4375 -3 30 C-8.15009844 30.65728235 -12.43709272 30.63447303 -17 28 C-16.505 26.515 -16.505 26.515 -16 25 C-12.04 25 -8.08 25 -4 25 C-3.67 23.68 -3.34 22.36 -3 21 C-5.24787159 17.62819262 -6.37555912 17.22051206 -10 15.6875 C-14.76197567 13.38576357 -14.76197567 13.38576357 -16.8125 10.0625 C-17.05361012 6.12436808 -16.21072252 4.24239303 -14 1 C-9.9593374 -2.17480633 -4.64025334 -1.54675111 0 0 Z " fill="#8D1800" transform="translate(913,285)"/>
<path d="M0 0 C3.20574141 4.80861212 3.30054701 9.28960675 3 15 C2 18.4375 2 18.4375 1 21 C-2.25 21.75 -2.25 21.75 -6 22 C-8.94572605 19.82946501 -9.84060941 18.47817177 -11 15 C-11.39589705 9.0615443 -10.88607059 5.23768366 -8 0 C-4.67212881 -1.1092904 -3.3006216 -1.01557588 0 0 Z " fill="#FDFDFD" transform="translate(730,289)"/>
<path d="M0 0 C2.4375 2 2.4375 2 4 4 C3.67 4.66 3.34 5.32 3 6 C2.39671875 5.90460938 1.7934375 5.80921875 1.171875 5.7109375 C0.37265625 5.60007812 -0.4265625 5.48921875 -1.25 5.375 C-2.43335938 5.20097656 -2.43335938 5.20097656 -3.640625 5.0234375 C-6.41909296 4.99583682 -7.72562897 5.41571591 -10 7 C-12.86694851 11.25920466 -12.75090752 16.06318248 -12 21 C-10.25 24.25 -10.25 24.25 -7 26 C-4.6396429 26.50055849 -2.3976048 26.74599507 0.01171875 26.859375 C2 27 2 27 4 28 C4 28.66 4 29.32 4 30 C0.24761721 31.8761914 -3.9141821 31.52412824 -8 31 C-12.41959245 29.30801081 -15.29696858 27.34747689 -17.5 23.125 C-18.56382199 16.47611255 -18.26915602 10.94392004 -15 5 C-10.36322155 0.47914101 -6.42763768 -0.56382787 0 0 Z " fill="#8D1800" transform="translate(1066,284)"/>
<path d="M0 0 C0.66 0 1.32 0 2 0 C2.39832031 0.85464844 2.79664063 1.70929688 3.20703125 2.58984375 C3.73683594 3.69457031 4.26664063 4.79929687 4.8125 5.9375 C5.33457031 7.03964844 5.85664062 8.14179688 6.39453125 9.27734375 C7.76794721 12.28740777 7.76794721 12.28740777 11 13 C11.39832031 12.14535156 11.79664063 11.29070312 12.20703125 10.41015625 C12.73683594 9.30542969 13.26664063 8.20070313 13.8125 7.0625 C14.33457031 5.96035156 14.85664062 4.85820312 15.39453125 3.72265625 C17 1 17 1 20 0 C21.17798756 3.48611591 21.04267177 3.90661685 19.3828125 7.5390625 C18.6371162 8.90483602 17.88414836 10.26665761 17.125 11.625 C13.78271948 17.88749832 12 22.77801006 12 30 C10.68 29.67 9.36 29.34 8 29 C8 27.824375 8 26.64875 8 25.4375 C7.43135138 19.66846798 4.65297117 15.19086243 1.70703125 10.31811523 C-0.03462825 7.33770821 -1.04744715 5.54348552 -0.7421875 2.046875 C-0.49726562 1.37140625 -0.25234375 0.6959375 0 0 Z " fill="#8D1800" transform="translate(665,284)"/>
<path d="M0 0 C3.4375 0.875 3.4375 0.875 5.4375 3.875 C5.6875 7.4375 5.6875 7.4375 5.4375 10.875 C3.4375 12.875 3.4375 12.875 1.30859375 13.10546875 C0.50550781 13.09128906 -0.29757812 13.07710938 -1.125 13.0625 C-2.33349609 13.05283203 -2.33349609 13.05283203 -3.56640625 13.04296875 C-5.5625 12.875 -5.5625 12.875 -6.5625 11.875 C-6.765625 9.9140625 -6.765625 9.9140625 -6.8125 7.5 C-6.83828125 6.70851563 -6.8640625 5.91703125 -6.890625 5.1015625 C-6.5625 2.875 -6.5625 2.875 -5.26953125 1.078125 C-3.5625 -0.125 -3.5625 -0.125 0 0 Z " fill="#FDFDFD" transform="translate(957.5625,288.125)"/>
<path d="M0 0 C2.29013653 3.4352048 2.17842973 4.985331 2 9 C-1.25303044 10.62651522 -4.39225602 10.11453156 -8 10 C-9 9 -9 9 -9.09765625 6.93359375 C-9.08605469 6.10988281 -9.07445312 5.28617187 -9.0625 4.4375 C-9.05347656 3.61121094 -9.04445313 2.78492188 -9.03515625 1.93359375 C-9.02355469 1.29550781 -9.01195312 0.65742188 -9 0 C-5.85135005 -1.57432497 -3.35512575 -0.71895552 0 0 Z " fill="#FDFDFD" transform="translate(832,289)"/>
<path d="M0 0 C0.66 0 1.32 0 2 0 C2.50512244 1.60256108 3.00391627 3.20711792 3.5 4.8125 C3.7784375 5.70582031 4.056875 6.59914063 4.34375 7.51953125 C5 10 5 10 5 13 C2.69 13 0.38 13 -2 13 C-3.45047396 10.09905209 -2.45356803 8.44027404 -1.5625 5.375 C-1.27503906 4.37210937 -0.98757813 3.36921875 -0.69140625 2.3359375 C-0.46324219 1.56507813 -0.23507812 0.79421875 0 0 Z " fill="#FDFDFD" transform="translate(1007,290)"/>
</svg>
