<?xml version="1.0" encoding="UTF-8" standalone="no"?>
<!DOCTYPE svg PUBLIC "-//W3C//DTD SVG 1.1//EN" "http://www.w3.org/Graphics/SVG/1.1/DTD/svg11.dtd">
<svg xmlns="http://www.w3.org/2000/svg" version="1.1" viewBox="0.00 0.00 244.00 102.00">
<g stroke-width="2.00" fill="none" stroke-linecap="butt">
<path stroke="#d49c98" vector-effect="non-scaling-stroke" d="
  M 100.43 17.57
  A 0.64 0.64 0.0 0 0 99.81 17.13
  L 91.21 17.22
  A 0.64 0.64 0.0 0 0 90.61 18.06
  L 106.66 65.90
  A 0.64 0.64 0.0 0 0 107.27 66.33
  L 115.51 66.38
  A 0.64 0.64 0.0 0 0 116.12 65.54
  L 100.43 17.57"
/>
<path stroke="#d49c98" vector-effect="non-scaling-stroke" d="
  M 132.99 62.66
  A 0.57 0.57 0.0 0 0 134.06 62.64
  L 137.96 51.19
  A 0.57 0.57 0.0 0 0 137.96 50.81
  L 125.45 17.80
  A 0.57 0.57 0.0 0 0 124.39 17.78
  L 120.07 28.15
  A 0.57 0.57 0.0 0 0 120.06 28.57
  L 132.99 62.66"
/>
<path stroke="#d49c98" vector-effect="non-scaling-stroke" d="
  M 134.16 65.69
  A 0.47 0.47 0.0 0 0 134.60 66.30
  L 143.26 66.36
  A 0.47 0.47 0.0 0 0 143.71 66.03
  L 159.40 17.79
  A 0.47 0.47 0.0 0 0 158.95 17.17
  L 150.36 17.17
  A 0.47 0.47 0.0 0 0 149.91 17.49
  L 134.16 65.69"
/>
<path stroke="#d49c98" vector-effect="non-scaling-stroke" d="
  M 123.96 46.32
  A 5.68 5.68 0.0 0 0 118.28 40.64
  A 5.68 5.68 0.0 0 0 112.60 46.32
  A 5.68 5.68 0.0 0 0 118.28 52.00
  A 5.68 5.68 0.0 0 0 123.96 46.32"
/>
<path stroke="#c99894" vector-effect="non-scaling-stroke" d="
  M 69.34 72.58
  A 1.92 1.92 0.0 0 0 67.42 70.66
  A 1.92 1.92 0.0 0 0 65.50 72.58
  A 1.92 1.92 0.0 0 0 67.42 74.50
  A 1.92 1.92 0.0 0 0 69.34 72.58"
/>
<path stroke="#c99894" vector-effect="non-scaling-stroke" d="
  M 106.70 79.52
  L 106.74 73.12
  A 1.21 1.21 0.0 0 0 105.62 71.91
  L 105.17 71.87
  Q 103.73 71.76 103.73 73.20
  L 103.68 95.44
  Q 103.68 96.74 104.95 97.03
  L 105.35 97.12
  A 0.98 0.97 -82.1 0 0 106.54 96.21
  C 106.80 90.80 104.94 82.14 111.73 79.89
  C 113.56 79.29 121.79 79.33 124.09 80.57
  C 128.39 82.88 127.67 90.79 127.50 95.64
  A 1.47 1.46 7.4 0 0 128.64 97.11
  L 128.91 97.17
  A 0.85 0.84 9.0 0 0 129.94 96.43
  C 130.52 89.88 131.46 81.24 125.08 78.05
  C 121.95 76.48 115.62 76.40 112.23 77.04
  Q 110.11 77.44 107.24 79.78
  Q 106.70 80.22 106.70 79.52"
/>
<path stroke="#c99894" vector-effect="non-scaling-stroke" d="
  M 39.57 92.59
  C 42.77 97.08 47.56 97.48 52.77 96.79
  Q 61.58 95.65 61.70 85.23
  Q 61.78 77.85 61.58 73.47
  A 1.11 1.10 2.2 0 0 60.62 72.44
  L 60.31 72.40
  Q 58.76 72.19 58.77 73.76
  Q 58.79 79.45 58.73 84.90
  C 58.67 89.77 57.91 93.09 52.74 93.90
  C 46.85 94.81 40.90 93.81 40.59 86.98
  Q 40.46 84.15 40.52 73.38
  A 0.94 0.94 0.0 0 0 39.53 72.44
  L 39.07 72.47
  Q 37.78 72.54 37.79 73.83
  C 37.84 78.10 38.63 86.35 37.05 90.19
  C 35.28 94.47 28.89 94.72 25.22 94.02
  Q 20.38 93.09 20.07 87.85
  Q 19.69 81.33 19.66 74.13
  A 1.58 1.57 3.5 0 0 18.27 72.57
  L 17.94 72.53
  Q 16.83 72.40 16.81 73.52
  Q 16.55 85.42 16.83 88.39
  C 17.38 94.17 22.06 96.70 27.33 96.94
  C 32.05 97.15 35.79 96.62 38.79 92.58
  Q 39.19 92.05 39.57 92.59"
/>
<path stroke="#c99894" vector-effect="non-scaling-stroke" d="
  M 80.31 80.08
  Q 84.80 78.80 90.79 79.82
  C 98.62 81.14 96.84 90.47 96.73 95.95
  A 1.02 1.01 1.1 0 0 97.73 96.98
  L 98.16 96.99
  Q 99.43 97.01 99.47 95.74
  C 99.66 89.67 100.74 80.89 94.11 77.92
  C 91.22 76.63 84.32 76.41 81.30 77.08
  C 71.44 79.28 73.45 88.37 73.36 95.79
  Q 73.34 97.04 74.59 97.01
  L 75.01 97.00
  A 0.91 0.91 0.0 0 0 75.90 96.10
  C 75.95 91.53 74.61 81.70 80.31 80.08"
/>
<path stroke="#c99894" vector-effect="non-scaling-stroke" d="
  M 161.07 86.22
  A 9.34 9.34 0.0 0 0 151.73 76.88
  L 143.27 76.88
  A 9.34 9.34 0.0 0 0 133.93 86.22
  L 133.93 87.62
  A 9.34 9.34 0.0 0 0 143.27 96.96
  L 151.73 96.96
  A 9.34 9.34 0.0 0 0 161.07 87.62
  L 161.07 86.22"
/>
<path stroke="#c99894" vector-effect="non-scaling-stroke" d="
  M 209.78 88.07
  L 227.48 88.13
  A 0.75 0.74 90.0 0 0 228.23 87.37
  L 228.22 86.96
  A 1.22 1.21 -0.2 0 0 227.01 85.77
  L 209.82 85.64
  Q 206.95 85.62 208.63 83.29
  L 209.47 82.12
  Q 211.30 79.58 214.44 79.56
  L 229.37 79.50
  Q 230.49 79.49 230.48 78.38
  L 230.47 78.02
  A 0.99 0.99 0.0 0 0 229.52 77.05
  Q 218.08 76.62 214.01 77.00
  C 204.99 77.83 202.55 88.71 208.14 94.41
  C 212.02 98.36 224.09 96.97 229.61 96.81
  A 0.84 0.84 0.0 0 0 230.43 95.86
  L 230.37 95.42
  Q 230.24 94.47 229.29 94.46
  L 214.44 94.36
  Q 211.40 94.34 209.60 91.89
  L 208.56 90.48
  Q 206.77 88.06 209.78 88.07"
/>
<path stroke="#c99894" vector-effect="non-scaling-stroke" d="
  M 68.7254 78.2124
  A 1.24 1.24 0.0 0 0 67.4876 76.9702
  L 67.2876 76.9698
  A 1.24 1.24 0.0 0 0 66.0454 78.2077
  L 66.0146 95.8676
  A 1.24 1.24 0.0 0 0 67.2524 97.1098
  L 67.4524 97.1102
  A 1.24 1.24 0.0 0 0 68.6946 95.8723
  L 68.7254 78.2124"
/>
<path stroke="#c99894" vector-effect="non-scaling-stroke" d="
  M 182.54 80.17
  Q 180.25 77.50 176.54 77.01
  C 162.90 75.21 164.72 86.76 164.75 95.69
  Q 164.76 97.00 166.07 97.00
  L 166.55 96.99
  Q 167.55 96.99 167.53 95.98
  Q 167.42 90.85 167.59 85.26
  C 167.69 81.80 169.65 80.05 173.03 79.61
  C 183.76 78.23 181.79 87.92 181.71 95.59
  Q 181.69 96.81 182.90 97.00
  L 183.33 97.07
  A 0.83 0.83 0.0 0 0 184.29 96.24
  Q 184.26 90.68 184.62 84.76
  Q 184.85 80.99 188.47 80.01
  C 201.11 76.60 198.86 88.94 198.72 96.08
  A 0.91 0.91 0.0 0 0 199.66 97.00
  L 200.06 96.98
  Q 201.25 96.94 201.29 95.75
  C 201.49 89.50 203.21 79.33 195.01 77.24
  Q 188.06 75.47 183.29 80.20
  Q 182.90 80.60 182.54 80.17"
/>
<path stroke="#c99894" vector-effect="non-scaling-stroke" d="
  M 158.2255 86.2950
  A 6.75 6.75 0.0 0 0 151.4285 79.5923
  L 143.4487 79.6480
  A 6.75 6.75 0.0 0 0 136.7460 86.4450
  L 136.7545 87.6650
  A 6.75 6.75 0.0 0 0 143.5515 94.3677
  L 151.5313 94.3120
  A 6.75 6.75 0.0 0 0 158.2340 87.5150
  L 158.2255 86.2950"
/>
</g>
<path fill="#ffffff" d="
  M 0.00 0.00
  L 244.00 0.00
  L 244.00 102.00
  L 0.00 102.00
  L 0.00 0.00
  Z
  M 100.43 17.57
  A 0.64 0.64 0.0 0 0 99.81 17.13
  L 91.21 17.22
  A 0.64 0.64 0.0 0 0 90.61 18.06
  L 106.66 65.90
  A 0.64 0.64 0.0 0 0 107.27 66.33
  L 115.51 66.38
  A 0.64 0.64 0.0 0 0 116.12 65.54
  L 100.43 17.57
  Z
  M 132.99 62.66
  A 0.57 0.57 0.0 0 0 134.06 62.64
  L 137.96 51.19
  A 0.57 0.57 0.0 0 0 137.96 50.81
  L 125.45 17.80
  A 0.57 0.57 0.0 0 0 124.39 17.78
  L 120.07 28.15
  A 0.57 0.57 0.0 0 0 120.06 28.57
  L 132.99 62.66
  Z
  M 134.16 65.69
  A 0.47 0.47 0.0 0 0 134.60 66.30
  L 143.26 66.36
  A 0.47 0.47 0.0 0 0 143.71 66.03
  L 159.40 17.79
  A 0.47 0.47 0.0 0 0 158.95 17.17
  L 150.36 17.17
  A 0.47 0.47 0.0 0 0 149.91 17.49
  L 134.16 65.69
  Z
  M 123.96 46.32
  A 5.68 5.68 0.0 0 0 118.28 40.64
  A 5.68 5.68 0.0 0 0 112.60 46.32
  A 5.68 5.68 0.0 0 0 118.28 52.00
  A 5.68 5.68 0.0 0 0 123.96 46.32
  Z
  M 69.34 72.58
  A 1.92 1.92 0.0 0 0 67.42 70.66
  A 1.92 1.92 0.0 0 0 65.50 72.58
  A 1.92 1.92 0.0 0 0 67.42 74.50
  A 1.92 1.92 0.0 0 0 69.34 72.58
  Z
  M 106.70 79.52
  L 106.74 73.12
  A 1.21 1.21 0.0 0 0 105.62 71.91
  L 105.17 71.87
  Q 103.73 71.76 103.73 73.20
  L 103.68 95.44
  Q 103.68 96.74 104.95 97.03
  L 105.35 97.12
  A 0.98 0.97 -82.1 0 0 106.54 96.21
  C 106.80 90.80 104.94 82.14 111.73 79.89
  C 113.56 79.29 121.79 79.33 124.09 80.57
  C 128.39 82.88 127.67 90.79 127.50 95.64
  A 1.47 1.46 7.4 0 0 128.64 97.11
  L 128.91 97.17
  A 0.85 0.84 9.0 0 0 129.94 96.43
  C 130.52 89.88 131.46 81.24 125.08 78.05
  C 121.95 76.48 115.62 76.40 112.23 77.04
  Q 110.11 77.44 107.24 79.78
  Q 106.70 80.22 106.70 79.52
  Z
  M 39.57 92.59
  C 42.77 97.08 47.56 97.48 52.77 96.79
  Q 61.58 95.65 61.70 85.23
  Q 61.78 77.85 61.58 73.47
  A 1.11 1.10 2.2 0 0 60.62 72.44
  L 60.31 72.40
  Q 58.76 72.19 58.77 73.76
  Q 58.79 79.45 58.73 84.90
  C 58.67 89.77 57.91 93.09 52.74 93.90
  C 46.85 94.81 40.90 93.81 40.59 86.98
  Q 40.46 84.15 40.52 73.38
  A 0.94 0.94 0.0 0 0 39.53 72.44
  L 39.07 72.47
  Q 37.78 72.54 37.79 73.83
  C 37.84 78.10 38.63 86.35 37.05 90.19
  C 35.28 94.47 28.89 94.72 25.22 94.02
  Q 20.38 93.09 20.07 87.85
  Q 19.69 81.33 19.66 74.13
  A 1.58 1.57 3.5 0 0 18.27 72.57
  L 17.94 72.53
  Q 16.83 72.40 16.81 73.52
  Q 16.55 85.42 16.83 88.39
  C 17.38 94.17 22.06 96.70 27.33 96.94
  C 32.05 97.15 35.79 96.62 38.79 92.58
  Q 39.19 92.05 39.57 92.59
  Z
  M 80.31 80.08
  Q 84.80 78.80 90.79 79.82
  C 98.62 81.14 96.84 90.47 96.73 95.95
  A 1.02 1.01 1.1 0 0 97.73 96.98
  L 98.16 96.99
  Q 99.43 97.01 99.47 95.74
  C 99.66 89.67 100.74 80.89 94.11 77.92
  C 91.22 76.63 84.32 76.41 81.30 77.08
  C 71.44 79.28 73.45 88.37 73.36 95.79
  Q 73.34 97.04 74.59 97.01
  L 75.01 97.00
  A 0.91 0.91 0.0 0 0 75.90 96.10
  C 75.95 91.53 74.61 81.70 80.31 80.08
  Z
  M 161.07 86.22
  A 9.34 9.34 0.0 0 0 151.73 76.88
  L 143.27 76.88
  A 9.34 9.34 0.0 0 0 133.93 86.22
  L 133.93 87.62
  A 9.34 9.34 0.0 0 0 143.27 96.96
  L 151.73 96.96
  A 9.34 9.34 0.0 0 0 161.07 87.62
  L 161.07 86.22
  Z
  M 209.78 88.07
  L 227.48 88.13
  A 0.75 0.74 90.0 0 0 228.23 87.37
  L 228.22 86.96
  A 1.22 1.21 -0.2 0 0 227.01 85.77
  L 209.82 85.64
  Q 206.95 85.62 208.63 83.29
  L 209.47 82.12
  Q 211.30 79.58 214.44 79.56
  L 229.37 79.50
  Q 230.49 79.49 230.48 78.38
  L 230.47 78.02
  A 0.99 0.99 0.0 0 0 229.52 77.05
  Q 218.08 76.62 214.01 77.00
  C 204.99 77.83 202.55 88.71 208.14 94.41
  C 212.02 98.36 224.09 96.97 229.61 96.81
  A 0.84 0.84 0.0 0 0 230.43 95.86
  L 230.37 95.42
  Q 230.24 94.47 229.29 94.46
  L 214.44 94.36
  Q 211.40 94.34 209.60 91.89
  L 208.56 90.48
  Q 206.77 88.06 209.78 88.07
  Z
  M 68.7254 78.2124
  A 1.24 1.24 0.0 0 0 67.4876 76.9702
  L 67.2876 76.9698
  A 1.24 1.24 0.0 0 0 66.0454 78.2077
  L 66.0146 95.8676
  A 1.24 1.24 0.0 0 0 67.2524 97.1098
  L 67.4524 97.1102
  A 1.24 1.24 0.0 0 0 68.6946 95.8723
  L 68.7254 78.2124
  Z
  M 182.54 80.17
  Q 180.25 77.50 176.54 77.01
  C 162.90 75.21 164.72 86.76 164.75 95.69
  Q 164.76 97.00 166.07 97.00
  L 166.55 96.99
  Q 167.55 96.99 167.53 95.98
  Q 167.42 90.85 167.59 85.26
  C 167.69 81.80 169.65 80.05 173.03 79.61
  C 183.76 78.23 181.79 87.92 181.71 95.59
  Q 181.69 96.81 182.90 97.00
  L 183.33 97.07
  A 0.83 0.83 0.0 0 0 184.29 96.24
  Q 184.26 90.68 184.62 84.76
  Q 184.85 80.99 188.47 80.01
  C 201.11 76.60 198.86 88.94 198.72 96.08
  A 0.91 0.91 0.0 0 0 199.66 97.00
  L 200.06 96.98
  Q 201.25 96.94 201.29 95.75
  C 201.49 89.50 203.21 79.33 195.01 77.24
  Q 188.06 75.47 183.29 80.20
  Q 182.90 80.60 182.54 80.17
  Z"
/>
<path fill="#a83931" d="
  M 100.43 17.57
  L 116.12 65.54
  A 0.64 0.64 0.0 0 1 115.51 66.38
  L 107.27 66.33
  A 0.64 0.64 0.0 0 1 106.66 65.90
  L 90.61 18.06
  A 0.64 0.64 0.0 0 1 91.21 17.22
  L 99.81 17.13
  A 0.64 0.64 0.0 0 1 100.43 17.57
  Z"
/>
<path fill="#a83931" d="
  M 132.99 62.66
  L 120.06 28.57
  A 0.57 0.57 0.0 0 1 120.07 28.15
  L 124.39 17.78
  A 0.57 0.57 0.0 0 1 125.45 17.80
  L 137.96 50.81
  A 0.57 0.57 0.0 0 1 137.96 51.19
  L 134.06 62.64
  A 0.57 0.57 0.0 0 1 132.99 62.66
  Z"
/>
<path fill="#a83931" d="
  M 134.16 65.69
  L 149.91 17.49
  A 0.47 0.47 0.0 0 1 150.36 17.17
  L 158.95 17.17
  A 0.47 0.47 0.0 0 1 159.40 17.79
  L 143.71 66.03
  A 0.47 0.47 0.0 0 1 143.26 66.36
  L 134.60 66.30
  A 0.47 0.47 0.0 0 1 134.16 65.69
  Z"
/>
<circle fill="#a83931" cx="118.28" cy="46.32" r="5.68"/>
<circle fill="#923028" cx="67.42" cy="72.58" r="1.92"/>
<path fill="#923028" d="
  M 107.24 79.78
  Q 110.11 77.44 112.23 77.04
  C 115.62 76.40 121.95 76.48 125.08 78.05
  C 131.46 81.24 130.52 89.88 129.94 96.43
  A 0.85 0.84 9.0 0 1 128.91 97.17
  L 128.64 97.11
  A 1.47 1.46 7.4 0 1 127.50 95.64
  C 127.67 90.79 128.39 82.88 124.09 80.57
  C 121.79 79.33 113.56 79.29 111.73 79.89
  C 104.94 82.14 106.80 90.80 106.54 96.21
  A 0.98 0.97 -82.1 0 1 105.35 97.12
  L 104.95 97.03
  Q 103.68 96.74 103.68 95.44
  L 103.73 73.20
  Q 103.73 71.76 105.17 71.87
  L 105.62 71.91
  A 1.21 1.21 0.0 0 1 106.74 73.12
  L 106.70 79.52
  Q 106.70 80.22 107.24 79.78
  Z"
/>
<path fill="#923028" d="
  M 38.79 92.58
  C 35.79 96.62 32.05 97.15 27.33 96.94
  C 22.06 96.70 17.38 94.17 16.83 88.39
  Q 16.55 85.42 16.81 73.52
  Q 16.83 72.40 17.94 72.53
  L 18.27 72.57
  A 1.58 1.57 3.5 0 1 19.66 74.13
  Q 19.69 81.33 20.07 87.85
  Q 20.38 93.09 25.22 94.02
  C 28.89 94.72 35.28 94.47 37.05 90.19
  C 38.63 86.35 37.84 78.10 37.79 73.83
  Q 37.78 72.54 39.07 72.47
  L 39.53 72.44
  A 0.94 0.94 0.0 0 1 40.52 73.38
  Q 40.46 84.15 40.59 86.98
  C 40.90 93.81 46.85 94.81 52.74 93.90
  C 57.91 93.09 58.67 89.77 58.73 84.90
  Q 58.79 79.45 58.77 73.76
  Q 58.76 72.19 60.31 72.40
  L 60.62 72.44
  A 1.11 1.10 2.2 0 1 61.58 73.47
  Q 61.78 77.85 61.70 85.23
  Q 61.58 95.65 52.77 96.79
  C 47.56 97.48 42.77 97.08 39.57 92.59
  Q 39.19 92.05 38.79 92.58
  Z"
/>
<path fill="#923028" d="
  M 80.31 80.08
  C 74.61 81.70 75.95 91.53 75.90 96.10
  A 0.91 0.91 0.0 0 1 75.01 97.00
  L 74.59 97.01
  Q 73.34 97.04 73.36 95.79
  C 73.45 88.37 71.44 79.28 81.30 77.08
  C 84.32 76.41 91.22 76.63 94.11 77.92
  C 100.74 80.89 99.66 89.67 99.47 95.74
  Q 99.43 97.01 98.16 96.99
  L 97.73 96.98
  A 1.02 1.01 1.1 0 1 96.73 95.95
  C 96.84 90.47 98.62 81.14 90.79 79.82
  Q 84.80 78.80 80.31 80.08
  Z"
/>
<path fill="#923028" d="
  M 161.07 87.62
  A 9.34 9.34 0.0 0 1 151.73 96.96
  L 143.27 96.96
  A 9.34 9.34 0.0 0 1 133.93 87.62
  L 133.93 86.22
  A 9.34 9.34 0.0 0 1 143.27 76.88
  L 151.73 76.88
  A 9.34 9.34 0.0 0 1 161.07 86.22
  L 161.07 87.62
  Z
  M 158.2255 86.2950
  A 6.75 6.75 0.0 0 0 151.4285 79.5923
  L 143.4487 79.6480
  A 6.75 6.75 0.0 0 0 136.7460 86.4450
  L 136.7545 87.6650
  A 6.75 6.75 0.0 0 0 143.5515 94.3677
  L 151.5313 94.3120
  A 6.75 6.75 0.0 0 0 158.2340 87.5150
  L 158.2255 86.2950
  Z"
/>
<path fill="#923028" d="
  M 209.78 88.07
  Q 206.77 88.06 208.56 90.48
  L 209.60 91.89
  Q 211.40 94.34 214.44 94.36
  L 229.29 94.46
  Q 230.24 94.47 230.37 95.42
  L 230.43 95.86
  A 0.84 0.84 0.0 0 1 229.61 96.81
  C 224.09 96.97 212.02 98.36 208.14 94.41
  C 202.55 88.71 204.99 77.83 214.01 77.00
  Q 218.08 76.62 229.52 77.05
  A 0.99 0.99 0.0 0 1 230.47 78.02
  L 230.48 78.38
  Q 230.49 79.49 229.37 79.50
  L 214.44 79.56
  Q 211.30 79.58 209.47 82.12
  L 208.63 83.29
  Q 206.95 85.62 209.82 85.64
  L 227.01 85.77
  A 1.22 1.21 -0.2 0 1 228.22 86.96
  L 228.23 87.37
  A 0.75 0.74 90.0 0 1 227.48 88.13
  L 209.78 88.07
  Z"
/>
<rect fill="#923028" x="-1.34" y="-10.07" transform="translate(67.37,87.04) rotate(0.1)" width="2.68" height="20.14" rx="1.24"/>
<path fill="#923028" d="
  M 183.29 80.20
  Q 188.06 75.47 195.01 77.24
  C 203.21 79.33 201.49 89.50 201.29 95.75
  Q 201.25 96.94 200.06 96.98
  L 199.66 97.00
  A 0.91 0.91 0.0 0 1 198.72 96.08
  C 198.86 88.94 201.11 76.60 188.47 80.01
  Q 184.85 80.99 184.62 84.76
  Q 184.26 90.68 184.29 96.24
  A 0.83 0.83 0.0 0 1 183.33 97.07
  L 182.90 97.00
  Q 181.69 96.81 181.71 95.59
  C 181.79 87.92 183.76 78.23 173.03 79.61
  C 169.65 80.05 167.69 81.80 167.59 85.26
  Q 167.42 90.85 167.53 95.98
  Q 167.55 96.99 166.55 96.99
  L 166.07 97.00
  Q 164.76 97.00 164.75 95.69
  C 164.72 86.76 162.90 75.21 176.54 77.01
  Q 180.25 77.50 182.54 80.17
  Q 182.90 80.60 183.29 80.20
  Z"
/>
<rect fill="#ffffff" x="-10.74" y="-7.36" transform="translate(147.49,86.98) rotate(-0.4)" width="21.48" height="14.72" rx="6.75"/>
</svg>
